<svg xmlns="http://www.w3.org/2000/svg" width="13.548" height="16.639" viewBox="0 0 13.548 16.639"><defs><style>.a{fill:#282d5b;}</style></defs><path class="a" d="M13.385,11.921l-.943-1.479a1.029,1.029,0,0,1-.159-.49l-.326-4.968A5.28,5.28,0,0,0,7.086.009,5.186,5.186,0,0,0,1.6,4.843L1.266,9.951a1.029,1.029,0,0,1-.159.49L.164,11.921a1.041,1.041,0,0,0,.88,1.6H12.508a1.041,1.041,0,0,0,.877-1.6" transform="translate(0 0)"/><path class="a" d="M3.09,0a.7.7,0,0,1,.593,1.055,2.079,2.079,0,0,1-3.584,0A.7.7,0,0,1,.692,0h2.4" transform="translate(4.883 14.559)"/></svg>