<svg xmlns="http://www.w3.org/2000/svg" xmlns:xlink="http://www.w3.org/1999/xlink" width="24" height="24" viewBox="0 0 24 24">
  <defs>
    <clipPath id="clip-Board_Approvals">
      <rect width="24" height="24"/>
    </clipPath>
  </defs>
  <g id="Board_Approvals" data-name="Board Approvals" clip-path="url(#clip-Board_Approvals)">
    <rect width="24" height="24" fill="#fff"/>
    <g id="chat" transform="translate(1 0)" opacity="0.6">
      <path id="Path_1239" data-name="Path 1239" d="M26.634,1h-14.4A2.241,2.241,0,0,0,10,3.238V5.529H22.859a3,3,0,0,1,2.993,2.993v4.934h.781a2.241,2.241,0,0,0,2.238-2.238V3.238A2.241,2.241,0,0,0,26.634,1Z" transform="translate(-6.226)" fill="#51606a"/>
      <path id="Path_1240" data-name="Path 1240" d="M16.634,15H2.238A2.241,2.241,0,0,0,0,17.238v7.979a2.241,2.241,0,0,0,2.238,2.238H4.529V31.23a.378.378,0,0,0,.657.254l3.662-4.028h7.786a2.241,2.241,0,0,0,2.238-2.238V17.238A2.241,2.241,0,0,0,16.634,15Zm-12.1,3.78H9.813a.377.377,0,0,1,0,.755H4.529a.377.377,0,1,1,0-.755ZM14.72,24.064H4.529a.377.377,0,1,1,0-.755H14.72a.377.377,0,1,1,0,.755Zm0-2.265H4.529a.377.377,0,0,1,0-.755H14.72a.377.377,0,0,1,0,.755Z" transform="translate(0 -8.716)" fill="#51606a"/>
    </g>
  </g>
</svg>
