<svg xmlns="http://www.w3.org/2000/svg" width="16.636" height="18.413" viewBox="0 0 16.636 18.413">
    <defs>
        <style>
            .cls-1{opacity:.6}.cls-2{fill:#51606a}
        </style>
    </defs>
    <g id="manager" class="cls-1" transform="translate(-14.33)">
        <path id="Path_1255" d="M64.227 6.123a3.062 3.062 0 1 0-3.062-3.062 3.065 3.065 0 0 0 3.062 3.062z" class="cls-2" data-name="Path 1255" transform="translate(-43.931)"/>
        <path id="Path_1256" d="M174.439 185.307a3.462 3.462 0 1 0 3.462 3.462 3.466 3.466 0 0 0-3.462-3.462zm2.109 2.743l-2.262 2.262a.583.583 0 0 1-.824 0l-1.131-1.131a.583.583 0 0 1 .824-.824l.719.719 1.85-1.85a.583.583 0 1 1 .824.824z" class="cls-2" data-name="Path 1256" transform="translate(-146.936 -173.819)"/>
        <path id="Path_1257" d="M26.259 121.536V121a2.7 2.7 0 0 0-1.856-2.561h-.005l-1.619-.268a.271.271 0 0 0-.335.167l-1.837 5.041a.332.332 0 0 1-.623 0l-1.837-5.041a.271.271 0 0 0-.255-.179c-.026 0-1.7.28-1.7.28a2.713 2.713 0 0 0-1.862 2.577v4.184a1.138 1.138 0 0 0 1.138 1.138h7.651a4.411 4.411 0 0 1 3.14-4.807z" class="cls-2" data-name="Path 1257" transform="translate(0 -110.828)"/>
        <path id="Path_1258" d="M99.494 111.617a.382.382 0 0 0-.283-.117h-.791a.382.382 0 0 0-.283.117.367.367 0 0 0-.048.432l.423.637-.2 1.67.39 1.037a.119.119 0 0 0 .223 0l.39-1.037-.2-1.67.423-.637a.367.367 0 0 0-.048-.432z" class="cls-2" data-name="Path 1258" transform="translate(-78.521 -104.587)"/>
    </g>
</svg>
