<svg xmlns="http://www.w3.org/2000/svg" width="9.595" height="9.595" viewBox="0 0 9.595 9.595"><g transform="translate(-269 -0.016)"><g transform="translate(0 0.016)"><path d="M5.854,4.813,9.442,1.226a.526.526,0,0,0,0-.742L9.128.169a.526.526,0,0,0-.742,0L4.8,3.757,1.21.169a.526.526,0,0,0-.742,0L.154.484a.525.525,0,0,0,0,.742L3.741,4.813.154,8.4a.526.526,0,0,0,0,.742l.314.314a.526.526,0,0,0,.742,0L4.8,5.87,8.385,9.457a.521.521,0,0,0,.371.153h0a.521.521,0,0,0,.371-.153l.314-.314a.526.526,0,0,0,0-.742Z" transform="translate(269 -0.016)"/></g></g></svg>