<svg xmlns="http://www.w3.org/2000/svg" xmlns:xlink="http://www.w3.org/1999/xlink" width="24" height="24" viewBox="0 0 24 24">
  <defs>
    <clipPath id="clip-Certificates">
      <rect width="24" height="24"/>
    </clipPath>
  </defs>
  <g id="Certificates" clip-path="url(#clip-Certificates)">
    <rect width="24" height="24" fill="#fff"/>
    <g id="manager" transform="translate(-12.839 0.436)" opacity="0.6">
      <path id="Path_1255" data-name="Path 1255" d="M64.927,7.524a3.762,3.762,0,1,0-3.762-3.762A3.766,3.766,0,0,0,64.927,7.524Z" transform="translate(-43.267)" fill="#51606a"/>
      <path id="Path_1256" data-name="Path 1256" d="M175.231,185.307a4.254,4.254,0,1,0,4.254,4.254A4.259,4.259,0,0,0,175.231,185.307Zm2.591,3.37-2.78,2.78a.716.716,0,0,1-1.013,0l-1.39-1.39a.716.716,0,0,1,1.013-1.013l.884.884,2.274-2.274a.716.716,0,1,1,1.013,1.013Z" transform="translate(-144.715 -171.192)" fill="#51606a"/>
      <path id="Path_1257" data-name="Path 1257" d="M28.987,122.31v-.664a3.311,3.311,0,0,0-2.28-3.146l-.006,0-1.99-.329a.333.333,0,0,0-.411.2l-2.258,6.194a.408.408,0,0,1-.766,0l-2.258-6.194a.333.333,0,0,0-.313-.219c-.032,0-2.088.344-2.088.344a3.333,3.333,0,0,0-2.288,3.166v5.154a1.4,1.4,0,0,0,1.4,1.4h9.4a5.419,5.419,0,0,1,3.859-5.906Z" transform="translate(0 -109.153)" fill="#51606a"/>
      <path id="Path_1258" data-name="Path 1258" d="M99.827,111.644a.469.469,0,0,0-.347-.144h-.972a.469.469,0,0,0-.347.144.451.451,0,0,0-.059.531l.519.783-.243,2.052.479,1.274a.146.146,0,0,0,.275,0l.479-1.274-.243-2.052.52-.783a.451.451,0,0,0-.059-.531Z" transform="translate(-77.334 -103.007)" fill="#51606a"/>
    </g>
  </g>
</svg>
