<svg xmlns="http://www.w3.org/2000/svg" width="20.076" height="20.076" viewBox="0 0 20.076 20.076"><g transform="translate(-1238.962 -273)"><path d="M137.411,241.255h-8.783a.627.627,0,0,1,0-1.255h8.783a.627.627,0,0,1,0,1.255Zm0,0" transform="translate(1115.981 42.411)"/><path d="M17.776,20.076H2.3a2.3,2.3,0,0,1-2.3-2.3V2.3A2.3,2.3,0,0,1,2.3,0H17.776a2.3,2.3,0,0,1,2.3,2.3V17.776A2.3,2.3,0,0,1,17.776,20.076ZM2.3,1.255A1.047,1.047,0,0,0,1.255,2.3V17.776A1.047,1.047,0,0,0,2.3,18.821H17.776a1.047,1.047,0,0,0,1.046-1.046V2.3a1.047,1.047,0,0,0-1.046-1.046Zm0,0" transform="translate(1238.962 273)"/></g></svg>