<svg xmlns="http://www.w3.org/2000/svg" width="21.749" height="21.749" viewBox="0 0 21.749 21.749"><g transform="translate(-1238 -865)"><path d="M138.195,241.359H128.68a.68.68,0,0,1,0-1.359h9.515a.68.68,0,0,1,0,1.359Zm0,0" transform="translate(1115.437 635.195)"/><path d="M240.68,138.875a.68.68,0,0,1-.68-.68V128.68a.68.68,0,0,1,1.359,0v9.515A.68.68,0,0,1,240.68,138.875Zm0,0" transform="translate(1008.195 742.437)"/><path d="M19.257,21.749H2.492A2.494,2.494,0,0,1,0,19.257V2.492A2.494,2.494,0,0,1,2.492,0H19.257a2.494,2.494,0,0,1,2.492,2.492V19.257A2.494,2.494,0,0,1,19.257,21.749ZM2.492,1.359A1.134,1.134,0,0,0,1.359,2.492V19.257A1.134,1.134,0,0,0,2.492,20.39H19.257a1.134,1.134,0,0,0,1.133-1.133V2.492a1.134,1.134,0,0,0-1.133-1.133Zm0,0" transform="translate(1238 865)"/></g></svg>