<svg xmlns="http://www.w3.org/2000/svg" width="219.699" height="207.207" viewBox="0 0 219.699 207.207">
    <defs>
        <style>
            .cls-1{fill:none}.cls-2{opacity:.17}.cls-3,.cls-4{fill:#2476e2}.cls-3{opacity:.5}.cls-5{opacity:.75}.cls-6{clip-path:url(#clip-path)}.cls-7{fill:#f2d29d}.cls-8{fill:#e3c593}.cls-9{fill:#edcd99}.cls-10{fill:#ffdca4}.cls-11{fill:#002d51}.cls-12{fill:#d6d6d6}.cls-13{fill:#042b61}.cls-14{fill:#f0f0f0}.cls-15{fill:#389aff}.cls-16{fill:#1689fe}
        </style>
        <clipPath id="clip-path">
            <path id="Path_1797" d="M1650.166 243.145a77.829 77.829 0 1 0-153.79 17 77.829 77.829 0 1 0 151.923 0 78.094 78.094 0 0 0 1.867-17z" class="cls-1" data-name="Path 1797" transform="translate(-1494.509 -165.317)"/>
        </clipPath>
    </defs>
    <g id="Group_2792" data-name="Group 2792" transform="translate(-1230.328 -388)">
        <g id="Group_2652" class="cls-2" data-name="Group 2652" transform="matrix(.998 .07 -.07 .998 -7704.999 3758.493)">
            <path id="Path_1731" d="M9241.648-3973.424s-13.017 54.851 14.128 94.471c6.774 11.645-6.486 40.831-35.556 58.132-36.984 22.021-94.411 25.856-127.508-28.607-15.091-31.485 8.363-82.708 45.672-111.927 44.416-34.793 106.507-42.093 103.264-12.069z" class="cls-3" data-name="Path 1731" transform="translate(-395.999 15)"/>
            <ellipse id="Ellipse_183" cx="14.342" cy="10.936" class="cls-4" data-name="Ellipse 183" rx="14.342" ry="10.936" transform="translate(8878.514 -3863.785)"/>
        </g>
        <g id="Group_2790" class="cls-5" data-name="Group 2790" transform="translate(-228.661 222.683)">
            <g id="Group_2789" data-name="Group 2789" transform="translate(1494.509 165.317)">
                <g id="Group_2788" class="cls-6" data-name="Group 2788">
                    <g id="Group_2787" data-name="Group 2787" transform="translate(6.356 17.676)">
                        <g id="Group_2761" data-name="Group 2761" transform="translate(49.523 72.914)">
                            <path id="Rectangle_414" d="M0 0h43.899v50.46H0z" class="cls-7" data-name="Rectangle 414"/>
                        </g>
                        <g id="Group_2762" data-name="Group 2762" transform="translate(49.523 72.914)">
                            <path id="Path_1779" d="M1619.923 396.725a22.132 22.132 0 0 0 4.615 3.743l12.4 7.532a22.172 22.172 0 0 0 23.026 0l3.861-2.345v-37.021h-43.9z" class="cls-8" data-name="Path 1779" transform="translate(-1619.923 -368.634)"/>
                        </g>
                        <g id="Group_2767" data-name="Group 2767" transform="translate(29.507)">
                            <g id="Group_2763" data-name="Group 2763" transform="translate(2.794 50.885)">
                                <path id="Path_1780" d="M1592.722 347.248c-4.063-1.427-6.2-5.992-7.913-10.128-1.577-3.811-3.176-7.709-3.5-11.852-.146-1.866.074-3.981 1.438-5.18a4.288 4.288 0 0 1 3.936-.715 12.957 12.957 0 0 1 3.7 1.923c7.292 4.844 5.951 17.71 2.339 25.952z" class="cls-9" data-name="Path 1780" transform="translate(-1581.271 -319.193)"/>
                            </g>
                            <g id="Group_2764" data-name="Group 2764" transform="translate(68.796 50.091)">
                                <path id="Path_1781" d="M1732.333 345.466c4.063-1.427 6.2-5.992 7.914-10.128 1.577-3.811 3.175-7.709 3.5-11.852.146-1.866-.074-3.98-1.438-5.18a4.287 4.287 0 0 0-3.935-.715 12.967 12.967 0 0 0-3.7 1.923c-7.294 4.844-5.953 17.71-2.341 25.952z" class="cls-9" data-name="Path 1781" transform="translate(-1729.405 -317.411)"/>
                            </g>
                            <g id="Group_2765" data-name="Group 2765" transform="translate(10.069 32.108)">
                                <path id="Path_1782" d="M1653.114 342.591l-11.769 7.532a20.141 20.141 0 0 1-21.859 0l-11.769-7.532a22.447 22.447 0 0 1-10.119-18.948v-46.59h65.634v46.59a22.447 22.447 0 0 1-10.118 18.948z" class="cls-10" data-name="Path 1782" transform="translate(-1597.599 -277.052)"/>
                            </g>
                            <g id="Group_2766" data-name="Group 2766">
                                <path id="Path_1783" d="M1649.845 273.1c-.26-5.288-1.679-10.849-2.984-15.963a104.714 104.714 0 0 1-51.708-16.618 50.556 50.556 0 0 1-4.922 21.006c-1.9 3.952-4.391 8.013-3.884 12.409-1.808-4.031-3.3-7.716-5.108-11.747-2.132-4.752-4.278-9.547-5.424-14.662s-1.231-10.642.7-15.489a18.41 18.41 0 0 1 13.1-11.192 30.957 30.957 0 0 1 18.053-14.18c7.292-2.113 15.016-1.958 22.527-1.014 9.039 1.135 18.744 3.92 24.083 11.687 3.752 5.457 4.7 12.518 4.657 19.256a77.735 77.735 0 0 1-9.09 36.507z" class="cls-11" data-name="Path 1783" transform="translate(-1575 -204.988)"/>
                            </g>
                        </g>
                        <g id="Group_2778" data-name="Group 2778" transform="translate(0 108.402)">
                            <g id="Group_2768" data-name="Group 2768">
                                <path id="Path_1784" d="M1580.247 459.929l-21.92-11.645-6.308 5.823-17.6 7.542a40.01 40.01 0 0 0-22.109 23.865l-3.536 25.845h71.472z" class="cls-12" data-name="Path 1784" transform="translate(-1508.775 -448.284)"/>
                            </g>
                            <g id="Group_2769" data-name="Group 2769" transform="translate(71.472)">
                                <path id="Path_1785" d="M1669.185 459.929l21.92-11.645 6.307 5.823 17.6 7.542a40.01 40.01 0 0 1 22.11 23.865l3.536 25.845h-71.472z" class="cls-12" data-name="Path 1785" transform="translate(-1669.185 -448.284)"/>
                            </g>
                            <g id="Group_2770" data-name="Group 2770" transform="translate(60.678 16.361)">
                                <path id="Path_1786" d="M1655.753 485l-10.795 40.43 2.149 6.284h17.293l2.174-6.355z" class="cls-13" data-name="Path 1786" transform="translate(-1644.958 -485.005)"/>
                            </g>
                            <g id="Group_2771" data-name="Group 2771" transform="translate(63.811 13.464)">
                                <path id="Path_1787" d="M1655.793 490.727l-3.2-5.542a4.455 4.455 0 0 1 3.858-6.682h6.4a4.455 4.455 0 0 1 3.858 6.682l-3.2 5.542a4.455 4.455 0 0 1-7.716 0z" class="cls-13" data-name="Path 1787" transform="translate(-1651.99 -478.503)"/>
                            </g>
                            <g id="Group_2772" data-name="Group 2772" transform="translate(71.472)">
                                <path id="Path_1788" d="M1697.413 454.107l7.144 3.062-15.392 30.9-19.979-28.141 21.92-11.645z" class="cls-14" data-name="Path 1788" transform="translate(-1669.185 -448.284)"/>
                            </g>
                            <g id="Group_2773" data-name="Group 2773" transform="translate(80.118 5.823)">
                                <path id="Path_1789" d="M1751.415 518.6h-62.826l19.582-57.253 17.6 7.542a40.01 40.01 0 0 1 22.11 23.865z" class="cls-15" data-name="Path 1789" transform="translate(-1688.589 -461.352)"/>
                            </g>
                            <g id="Group_2774" data-name="Group 2774" transform="translate(80.118 5.823)">
                                <path id="Path_1790" d="M1724.879 468.513c-7.815 7.573-15.253 14.673-15.253 14.673l6.793 6.793-19.183 28.621h-8.647l19.582-57.253z" class="cls-16" data-name="Path 1790" transform="translate(-1688.589 -461.352)"/>
                            </g>
                            <g id="Group_2775" data-name="Group 2775" transform="translate(36.101)">
                                <path id="Path_1791" d="M1596.943 454.107l-7.144 3.062 15.392 30.9 19.979-28.141-21.92-11.645z" class="cls-14" data-name="Path 1791" transform="translate(-1589.799 -448.284)"/>
                            </g>
                            <g id="Group_2776" data-name="Group 2776" transform="translate(0 5.823)">
                                <path id="Path_1792" d="M1508.775 518.6h62.825l-19.582-57.253-17.6 7.542a40.01 40.01 0 0 0-22.109 23.865z" class="cls-15" data-name="Path 1792" transform="translate(-1508.775 -461.352)"/>
                            </g>
                            <g id="Group_2777" data-name="Group 2777" transform="translate(26.537 5.823)">
                                <path id="Path_1793" d="M1568.333 468.513a3225.83 3225.83 0 0 0 15.252 14.673l-6.793 6.793 19.183 28.627h8.648l-19.582-57.253z" class="cls-16" data-name="Path 1793" transform="translate(-1568.333 -461.352)"/>
                            </g>
                        </g>
                        <g id="Group_2779" data-name="Group 2779" transform="translate(29.69 6.887)">
                            <path id="Path_1794" d="M1580.262 291.705h-4.852v-28.556a42.7 42.7 0 0 1 85.407 0v27.4h-4.852v-27.4a37.852 37.852 0 0 0-75.7 0z" class="cls-13" data-name="Path 1794" transform="translate(-1575.41 -220.446)"/>
                        </g>
                        <g id="Group_2782" data-name="Group 2782" transform="translate(23.448 47.162)">
                            <g id="Group_2780" data-name="Group 2780" transform="translate(0 2.337)">
                                <path id="Rectangle_415" d="M8.809 0v29.238A8.809 8.809 0 0 1 0 20.429V8.809A8.809 8.809 0 0 1 8.809 0z" class="cls-13" data-name="Rectangle 415"/>
                            </g>
                            <g id="Group_2781" data-name="Group 2781" transform="translate(8.809)">
                                <rect id="Rectangle_416" width="7.122" height="33.912" class="cls-13" data-name="Rectangle 416" rx="3.561"/>
                            </g>
                        </g>
                        <g id="Group_2783" data-name="Group 2783" transform="translate(74.544 67.828)">
                            <path id="Path_1795" d="M1678.506 392.2a2.426 2.426 0 0 1-.7-4.748l8.744-2.651a39.281 39.281 0 0 0 26.111-25.879 2.426 2.426 0 1 1 4.63 1.449 44.125 44.125 0 0 1-29.333 29.074l-8.744 2.651a2.425 2.425 0 0 1-.708.104z" class="cls-13" data-name="Path 1795" transform="translate(-1676.081 -357.22)"/>
                        </g>
                        <g id="Group_2786" data-name="Group 2786" transform="translate(105.472 47.162)">
                            <g id="Group_2784" data-name="Group 2784" transform="translate(7.122 2.337)">
                                <path id="Rectangle_417" d="M8.809 0v29.238A8.809 8.809 0 0 1 0 20.429V8.809A8.809 8.809 0 0 1 8.809 0z" class="cls-13" data-name="Rectangle 417" transform="rotate(180 4.404 14.619)"/>
                            </g>
                            <g id="Group_2785" data-name="Group 2785">
                                <rect id="Rectangle_418" width="7.122" height="33.912" class="cls-13" data-name="Rectangle 418" rx="3.561" transform="rotate(180 3.561 16.956)"/>
                            </g>
                        </g>
                    </g>
                </g>
            </g>
        </g>
    </g>
</svg>
