<svg xmlns="http://www.w3.org/2000/svg" width="11.459" height="13.369" viewBox="0 0 11.459 13.369"><defs><style>.a{fill:#282d5b;}</style></defs><g transform="translate(-4 -2)"><path class="a" d="M14.027,3.432h-.955V2.477A.477.477,0,0,0,12.594,2H6.865a.477.477,0,0,0-.477.477v.955H5.432A1.432,1.432,0,0,0,4,4.865V5.82a.477.477,0,0,0,.477.477h.477l.43,7.716a1.432,1.432,0,0,0,1.432,1.356h5.825a1.432,1.432,0,0,0,1.432-1.356L14.5,6.3h.477a.477.477,0,0,0,.477-.477V4.865A1.432,1.432,0,0,0,14.027,3.432ZM7.342,2.955h4.775v.477H7.342ZM13.12,13.961a.477.477,0,0,1-.477.454H6.817a.477.477,0,0,1-.477-.454L5.934,6.3h7.616ZM14.5,5.342H4.955V4.865a.477.477,0,0,1,.477-.477h8.594a.477.477,0,0,1,.477.477ZM7.342,13.459V7.252a.477.477,0,0,1,.955,0v6.207a.477.477,0,1,1-.955,0Zm3.82,0V7.252a.477.477,0,0,1,.955,0v6.207a.477.477,0,1,1-.955,0Zm-1.91,0V7.252a.477.477,0,0,1,.955,0v6.207a.477.477,0,1,1-.955,0Z"/></g></svg>