<svg xmlns="http://www.w3.org/2000/svg" width="13.3" height="16.601" viewBox="0 0 13.3 16.601"><defs><style>.a{fill:#fff;}</style></defs><path class="a" d="M10,16.6H3.4a2.469,2.469,0,0,1-2.5-2.49V6.426A1.726,1.726,0,0,1,0,4.98V4.15A1.7,1.7,0,0,1,1.7,2.49H3.4A2.469,2.469,0,0,1,5.9,0H7.5A2.469,2.469,0,0,1,10,2.49h1.7a1.545,1.545,0,0,1,1.1.486,1.721,1.721,0,0,1,.5,1.174v.83a1.63,1.63,0,0,1-.8,1.446v7.685A2.469,2.469,0,0,1,10,16.6ZM2.5,6.64v7.471a.868.868,0,0,0,.9.83H10a.78.78,0,0,0,.8-.83V6.64H9.2v4.981a.868.868,0,0,1-.9.83.848.848,0,0,1-.8-.83V6.64H5.9v4.981a.868.868,0,0,1-.9.83.848.848,0,0,1-.8-.83V6.64ZM1.7,4.15v.83h10V4.15H1.7ZM5.9,1.66A.868.868,0,0,0,5,2.49H8.3a.852.852,0,0,0-.233-.608A.781.781,0,0,0,7.5,1.66Z"/></svg>