<svg xmlns="http://www.w3.org/2000/svg" width="12.395" height="7.9" viewBox="0 0 12.395 7.9"><defs><style>.a{opacity:0.8;}.b{fill:#282d5b;}</style></defs><g class="a" transform="translate(0 -92.835)"><g transform="translate(0 92.835)"><g transform="translate(0 0)"><path class="b" d="M12.317,96.544c-.111-.151-2.749-3.709-6.119-3.709S.189,96.393.079,96.544a.409.409,0,0,0,0,.482c.111.151,2.749,3.709,6.119,3.709s6.008-3.558,6.119-3.709A.409.409,0,0,0,12.317,96.544ZM6.2,99.918c-2.482,0-4.632-2.361-5.268-3.133.636-.773,2.781-3.133,5.268-3.133s4.632,2.361,5.268,3.133C10.83,97.558,8.685,99.918,6.2,99.918Z" transform="translate(0 -92.835)"/></g></g><g transform="translate(3.746 94.333)"><g transform="translate(0 0)"><path class="b" d="M157.174,154.725a2.452,2.452,0,1,0,2.452,2.452A2.455,2.455,0,0,0,157.174,154.725Zm0,4.086a1.635,1.635,0,1,1,1.635-1.635A1.636,1.636,0,0,1,157.174,158.811Z" transform="translate(-154.722 -154.725)"/></g></g></g></svg>