<svg xmlns="http://www.w3.org/2000/svg" width="11.26" height="8.599" viewBox="0 0 11.26 8.599"><defs><style>.a{opacity:0.8;}.b{fill:#282d5b;}</style></defs><g class="a" transform="translate(0 -60.5)"><g transform="translate(0 60.5)"><path class="b" d="M10.82,67.58a.44.44,0,0,0,.44-.44V62.259A1.761,1.761,0,0,0,9.5,60.5H1.759A1.761,1.761,0,0,0,0,62.259v5.08A1.761,1.761,0,0,0,1.759,69.1H9.5a1.761,1.761,0,0,0,1.759-1.759.44.44,0,1,0-.88,0,.881.881,0,0,1-.88.88H1.759a.881.881,0,0,1-.88-.88V62.353L4.7,64.729a1.748,1.748,0,0,0,1.858,0l3.821-2.376V67.14A.44.44,0,0,0,10.82,67.58Zm-4.725-3.6a.874.874,0,0,1-.929,0L1.247,61.545a.875.875,0,0,1,.513-.165H9.5a.875.875,0,0,1,.513.165Z" transform="translate(0 -60.5)"/></g></g></svg>