<svg xmlns="http://www.w3.org/2000/svg" width="9.735" height="11.888" viewBox="0 0 9.735 11.888"><defs><style>.a{opacity:0.8;}.b{fill:#282d5b;stroke:#282d5b;stroke-width:0.1px;}</style></defs><g class="a" transform="translate(0.054 0.05)"><path class="b" d="M9.6,2.634l-.26-.78a.726.726,0,0,0-.689-.5H6.46V.645A.646.646,0,0,0,5.815,0h-2a.646.646,0,0,0-.645.646v.712H.979a.726.726,0,0,0-.689.5l-.26.78A.584.584,0,0,0,.583,3.4H.856l.6,7.4a1.071,1.071,0,0,0,1.062.98H7.233a1.071,1.071,0,0,0,1.062-.98l.6-7.4h.151A.584.584,0,0,0,9.6,2.634ZM3.857.69H5.77v.667H3.857ZM7.606,10.752a.377.377,0,0,1-.373.345H2.516a.377.377,0,0,1-.373-.345L1.548,3.4H8.2ZM.732,2.713l.213-.64a.036.036,0,0,1,.034-.025H8.648a.036.036,0,0,1,.034.025l.213.64Zm0,0" transform="translate(0)"/><path class="b" d="M268.624,172.492h.018a.345.345,0,0,0,.345-.327l.324-6.226a.345.345,0,0,0-.69-.036l-.324,6.226A.345.345,0,0,0,268.624,172.492Zm0,0" transform="translate(-262.119 -161.765)"/><path class="b" d="M106.134,172.169a.345.345,0,0,0,.345.327h.019a.345.345,0,0,0,.326-.364l-.34-6.226a.345.345,0,0,0-.69.038Zm0,0" transform="translate(-103.358 -161.767)"/><path class="b" d="M194.6,172.5a.345.345,0,0,0,.345-.345v-6.226a.345.345,0,1,0-.691,0v6.226A.345.345,0,0,0,194.6,172.5Zm0,0" transform="translate(-189.782 -161.767)"/></g></svg>