<svg xmlns="http://www.w3.org/2000/svg" width="20.161" height="14.845" viewBox="0 0 20.161 14.845"><defs><style>.a{fill:#282d5b;stroke:#282d5b;stroke-width:0.4px;}</style></defs><g transform="translate(0.2 0.2)"><g transform="translate(0 0)"><path class="a" d="M16,73.485H14.754l.375-4.3c0-.008,0-.015,0-.023v0h0a.289.289,0,0,0-.175-.265h0l-.02-.007-.007,0-.017,0-.012,0-.015,0-.014,0H8.916a.289.289,0,0,0,0,.579h5.608l-.576,6.614v0L13.8,77.731H3.744l.168-1.737H5.828a.289.289,0,1,0,0-.579H3.969l.355-3.666H7.372a.289.289,0,1,0,0-.579H4.38l.167-1.724H7.758a.289.289,0,0,0,0-.579H4.284A.29.29,0,0,0,4,69.1v0c0,.007,0,.015,0,.022v.007H4L3.8,71.17H.289a.289.289,0,1,0,0,.579H3.742l-.355,3.666H2.354a.289.289,0,1,0,0,.579h.977l-.193,2h0l-.3,3.087h0s0,.008,0,.012,0,.011,0,.016h0c0,.007,0,.015,0,.022s0,0,0,.007,0,.015,0,.022v.006c0,.006,0,.011,0,.016l0,.011v0a.289.289,0,0,0,.069.113l0,0,.01.009A.287.287,0,0,0,3,81.367l.015.007,0,0,.022.008h0l.026.007h0l.025,0H4.416a2.2,2.2,0,0,0,4.369,0h4.643a2.2,2.2,0,0,0,4.369,0h1.29l.029,0h.005l.022,0,.009,0,.017,0,.011,0,.014-.005.012-.005.013-.006.012-.006.012-.007.011-.007.012-.009.009-.008.012-.01.008-.008L19.3,81.3l.006-.007.012-.016,0-.006.013-.022h0c0-.008.008-.016.012-.025l0-.007.007-.018,0-.012,0-.015s0-.009,0-.013,0-.008,0-.012c.012-.1.239-1.917.34-3.093v0c.029-.339.048-.624.048-.8A3.767,3.767,0,0,0,16,73.485Zm-1.295.579h1.184L15.736,75.8H14.552ZM6.6,82.733a1.625,1.625,0,1,1,1.625-1.625A1.627,1.627,0,0,1,6.6,82.733Zm9.012,0a1.625,1.625,0,1,1,1.625-1.625A1.627,1.627,0,0,1,15.612,82.733Zm3.218-1.915H17.8a2.2,2.2,0,0,0-4.369,0H8.784a2.2,2.2,0,0,0-4.369,0h-.97l.243-2.509h10.38l.029,0H14.1l.022,0,.009,0,.017,0,.011,0,.014-.005.012-.005.013-.006.012-.007.012-.007.011-.008.011-.008.01-.008.011-.01.009-.009.01-.011.008-.009.009-.012.007-.01.008-.013.006-.01.007-.014,0-.011.005-.014,0-.012,0-.014,0-.014s0-.009,0-.014,0-.009,0-.014v0L14.5,76.38H16a2.073,2.073,0,0,1,1.71.946,2.375,2.375,0,0,0,1.4.959C19.026,79.175,18.89,80.318,18.829,80.818ZM19.16,77.7a1.894,1.894,0,0,1-1.015-.758,2.718,2.718,0,0,0-1.829-1.128l.15-1.719a3.189,3.189,0,0,1,2.716,3.149C19.182,77.357,19.174,77.514,19.16,77.7Z" transform="translate(0 -68.867)"/></g><g transform="translate(5.539 11.179)"><path class="a" d="M144.569,358.524a1.061,1.061,0,1,0,1.061,1.061A1.063,1.063,0,0,0,144.569,358.524Zm0,1.544a.482.482,0,1,1,.482-.482A.483.483,0,0,1,144.569,360.068Z" transform="translate(-143.508 -358.524)"/></g><g transform="translate(14.55 11.179)"><path class="a" d="M378.057,358.524a1.061,1.061,0,1,0,1.061,1.061A1.063,1.063,0,0,0,378.057,358.524Zm0,1.544a.482.482,0,1,1,.482-.482A.483.483,0,0,1,378.057,360.068Z" transform="translate(-376.996 -358.524)"/></g><g transform="translate(1.036 4.618)"><g transform="translate(0 0)"><path class="a" d="M28.539,188.527H27.123a.289.289,0,0,0,0,.579h1.415a.289.289,0,0,0,0-.579Z" transform="translate(-26.834 -188.527)"/></g></g></g></svg>