<svg xmlns="http://www.w3.org/2000/svg" width="12.753" height="16.28" viewBox="0 0 12.753 16.28">
    <defs>
        <style>
            .cls-1{opacity:.6}.cls-2{fill:#51606a}
        </style>
    </defs>
    <g id="diploma" class="cls-1" transform="translate(-6.5)">
        <path id="Path_1271" d="M38.058 43.862l-.014.008a.166.166 0 0 0-.055.076.716.716 0 0 1-1.35 0 .17.17 0 0 0-.056-.077l-.011-.007a.179.179 0 0 0-.062-.026h-.01v2.1l.814-.814.814.814v-2.1h-.011a.192.192 0 0 0-.059.026z" class="cls-2" data-name="Path 1271" transform="translate(-21.861 -31.941)"/>
        <path id="Path_1272" d="M15.3 0H6.5v16.28h12.753V3.958zm-2.017 6.241h1.9a.271.271 0 1 1 0 .543h-1.9a.271.271 0 1 1 0-.543zm-1.083.271a.274.274 0 0 1-.079.19.266.266 0 0 1-.193.081.285.285 0 0 1-.193-.079.273.273 0 0 1-.079-.193.261.261 0 0 1 .079-.19.281.281 0 0 1 .385 0 .284.284 0 0 1 .08.191zM9.213 4.07h2.442a.271.271 0 1 1 0 .543H9.213a.271.271 0 1 1 0-.543zm0 2.171h1.357a.271.271 0 1 1 0 .543H9.213a.271.271 0 1 1 0-.543zM9.021 8.49a.284.284 0 0 1 .385 0 .275.275 0 0 1 0 .385.271.271 0 0 1-.464-.193.268.268 0 0 1 .079-.192zm.679 4.471a.274.274 0 0 1-.463.192l-.761-.638c-.269-.225.117-.607.384-.384l.337.282a1.8 1.8 0 0 1 .867-1.515c.31-.161.584.307.274.469-.587.307-.615 1.006-.638 1.594zm2.428-.409c-.093-.167-.5.153-.615.195a.922.922 0 0 1-1.182-.463c-.154-.313.314-.588.469-.274.259.525.7.076 1.068-.029a.639.639 0 0 1 .729.3c.174.303-.297.576-.465.271zm.338-3.6h-1.9a.271.271 0 0 1 0-.543h1.9a.271.271 0 0 1 0 .543zm4.951 1.76a.173.173 0 0 0-.1.238.708.708 0 0 1-.039.687.722.722 0 0 1-.471.318v3.35l-1.353-1.355-1.354 1.357v-3.35a.723.723 0 0 1-.471-.317.711.711 0 0 1-.039-.687.173.173 0 0 0-.1-.238.716.716 0 0 1 0-1.35.173.173 0 0 0 .1-.238.709.709 0 0 1 .039-.687.727.727 0 0 1 .915-.267.171.171 0 0 0 .238-.1.716.716 0 0 1 1.35 0 .171.171 0 0 0 .238.1.728.728 0 0 1 .915.267.711.711 0 0 1 .039.687.173.173 0 0 0 .1.238.716.716 0 0 1 0 1.35zm-1.152-4.2a.269.269 0 1 1 .079.193.283.283 0 0 1-.076-.193zM14.64 4.07V.271l3.8 3.8z" class="cls-2" data-name="Path 1272"/>
        <path id="Path_1273" d="M36.183 31.736a.716.716 0 0 1-.407-.983.162.162 0 0 0-.008-.164.172.172 0 0 0-.223-.067.716.716 0 0 1-.983-.407.174.174 0 0 0-.327 0 .718.718 0 0 1-.675.476.71.71 0 0 1-.307-.069.172.172 0 0 0-.223.067.162.162 0 0 0-.008.164.717.717 0 0 1-.407.983.174.174 0 0 0 0 .327.716.716 0 0 1 .407.983.162.162 0 0 0 .008.164.17.17 0 0 0 .182.078l.063-.02a.662.662 0 0 1 .286-.061.718.718 0 0 1 .675.477.174.174 0 0 0 .327 0 .718.718 0 0 1 .675-.477.7.7 0 0 1 .154.017c.015 0 .029.01.044.015a.684.684 0 0 1 .094.031l.059.018a.17.17 0 0 0 .179-.079.162.162 0 0 0 .008-.164.717.717 0 0 1 .407-.983.174.174 0 0 0 0-.327z" class="cls-2" data-name="Path 1273" transform="translate(-18.945 -21.86)"/>
    </g>
</svg>
