<svg xmlns="http://www.w3.org/2000/svg" xmlns:xlink="http://www.w3.org/1999/xlink" width="133.191" height="140.645" viewBox="0 0 133.191 140.645"><defs><style>.a,.c,.j{fill:none;}.a{stroke:#4ab5f1;stroke-linecap:round;stroke-linejoin:round;stroke-width:0.5px;}.b,.e,.f,.g,.h{fill:#4ab5f1;}.c{stroke:#fff;stroke-width:4px;}.d{opacity:0.74;}.e{opacity:0.49;}.f{opacity:0.22;}.g{opacity:0.3;}.h{opacity:0.48;}.i{stroke:none;}.k{filter:url(#c);}.l{filter:url(#a);}</style><filter id="a" x="7.551" y="23.997" width="116.648" height="116.648" filterUnits="userSpaceOnUse"><feOffset dy="1" input="SourceAlpha"/><feGaussianBlur stdDeviation="5" result="b"/><feFlood flood-color="#8b8b8b" flood-opacity="0.122"/><feComposite operator="in" in2="b"/><feComposite in="SourceGraphic"/></filter><filter id="c" x="17.949" y="34.395" width="95.853" height="95.853" filterUnits="userSpaceOnUse"><feOffset dy="1" input="SourceAlpha"/><feGaussianBlur stdDeviation="5" result="d"/><feFlood flood-color="#8b8b8b" flood-opacity="0.122"/><feComposite operator="in" in2="d"/><feComposite in="SourceGraphic"/></filter></defs><g transform="translate(-167.571 -10.037)"><g transform="translate(167.571 10.037)"><g transform="translate(22.551 37.997)"><g class="l" transform="matrix(1, 0, 0, 1, -22.55, -38)"><g class="a" transform="translate(22.55 38)"><circle class="i" cx="43.324" cy="43.324" r="43.324"/><circle class="j" cx="43.324" cy="43.324" r="43.074"/></g></g><g transform="translate(10.398 10.398)"><g class="k" transform="matrix(1, 0, 0, 1, -32.95, -48.39)"><circle class="b" cx="32.926" cy="32.926" r="32.926" transform="translate(32.95 48.39)"/></g><path class="c" d="M1208.814,506.032l11.155,11.243,21.753-18.793" transform="translate(-1192.843 -475.197)"/></g></g><g class="d" transform="translate(0 0)"><circle class="e" cx="6.987" cy="6.987" r="6.987" transform="translate(0 39.739)"/><circle class="f" cx="10.044" cy="10.044" r="10.044" transform="translate(113.103 27.512)"/><circle class="g" cx="3.93" cy="3.93" r="3.93" transform="translate(39.739 12.227)"/><circle class="h" cx="6.987" cy="6.987" r="6.987" transform="translate(70.307 0)"/></g></g></g></svg>