<svg xmlns="http://www.w3.org/2000/svg" width="27" height="27" viewBox="0 0 27 27"><defs><style>.a{fill:#fff;stroke:#fa5179;}.b{fill:#fa5179;}.c{stroke:none;}.d{fill:none;}</style></defs><g transform="translate(-0.419 -0.178)"><g class="a" transform="translate(0.419 0.178)"><circle class="c" cx="13.5" cy="13.5" r="13.5"/><circle class="d" cx="13.5" cy="13.5" r="13"/></g><g transform="translate(8.697 6.523)"><path class="b" d="M9.436,1.676H7.848V1.593A1.6,1.6,0,0,0,6.255,0H4.05A1.6,1.6,0,0,0,2.457,1.593v.083H.869A.869.869,0,0,0,0,2.545v.662a.29.29,0,0,0,.29.29h9.726a.29.29,0,0,0,.29-.29V2.545a.869.869,0,0,0-.869-.869Zm-6.11-.083A.725.725,0,0,1,4.05.869H6.255a.725.725,0,0,1,.724.724v.083H3.326Zm0,0" transform="translate(0 0)"/><path class="b" d="M12.949,150.738l.7,10.06a.435.435,0,0,0,.433.4h7.284a.434.434,0,0,0,.433-.4l.7-10.06Zm3.058,8.987h-.019a.434.434,0,0,1-.434-.416l-.29-6.807a.434.434,0,1,1,.868-.037l.29,6.807a.434.434,0,0,1-.416.452Zm2.154-.434a.434.434,0,1,1-.869,0v-6.807a.434.434,0,1,1,.869,0Zm1.738.018a.435.435,0,0,1-.434.416h-.019a.435.435,0,0,1-.416-.453l.29-6.807a.435.435,0,0,1,.868.037Zm0,0" transform="translate(-12.574 -146.372)"/></g></g></svg>