<svg xmlns="http://www.w3.org/2000/svg" width="74" height="61" viewBox="0 0 74 61"><defs><style>.a{opacity:0.08;}.b{opacity:0.25;}</style></defs><g transform="translate(-809 -2624)"><rect class="a" width="74" height="61" rx="4" transform="translate(809 2624)"/><g class="b" transform="translate(786.032 2636)"><g transform="translate(55.751 7.904)"><g transform="translate(0)"><path d="M216.84,108.016H206.456a1.464,1.464,0,0,0,0,2.927H216.84a1.464,1.464,0,1,0,0-2.927Z" transform="translate(-204.992 -108.016)"/></g></g><g transform="translate(55.751 13.759)"><g transform="translate(0)"><path d="M216.84,188.027H206.456a1.464,1.464,0,0,0,0,2.927H216.84a1.464,1.464,0,1,0,0-2.927Z" transform="translate(-204.775 -188.027)"/></g></g><g transform="translate(55.751 19.614)"><g transform="translate(0)"><path d="M210.92,268.039h-4.464a1.464,1.464,0,0,0,0,2.927h4.464a1.464,1.464,0,0,0,0-2.927Z" transform="translate(-204.992 -268.039)"/></g></g><g transform="translate(43.968)"><g transform="translate(0)"><path d="M73.535,19.906A1.464,1.464,0,0,0,75,18.443V5.855A5.861,5.861,0,0,0,69.144,0H55.678a5.862,5.862,0,0,0-5.855,5.849A5.861,5.861,0,0,0,43.968,11.7V31.611a5.861,5.861,0,0,0,5.855,5.855h14.2a5.861,5.861,0,0,0,5.855-5.855v-.044A5.864,5.864,0,0,0,75,25.757a1.464,1.464,0,0,0-2.927,0,2.931,2.931,0,0,1-2.927,2.927l-13.466,0h0A2.928,2.928,0,0,1,52.75,25.76V5.855a2.931,2.931,0,0,1,2.927-2.927H69.144a2.931,2.931,0,0,1,2.927,2.927V18.443A1.464,1.464,0,0,0,73.535,19.906ZM55.678,31.615h0l11.269,0a2.931,2.931,0,0,1-2.927,2.926h-14.2A2.931,2.931,0,0,1,46.9,31.61V11.7a2.931,2.931,0,0,1,2.927-2.927V25.76a5.855,5.855,0,0,0,5.855,5.855Z" transform="translate(-43.968)"/></g></g></g></g></svg>