<svg xmlns="http://www.w3.org/2000/svg" width="28" height="27" viewBox="0 0 28 27"><defs><style>.a{fill:#fff;stroke:#2aabfa;}.b{fill:#2aabfa;}.c{stroke:none;}.d{fill:none;}</style></defs><g transform="translate(0.446 -0.178)"><g class="a" transform="translate(-0.446 0.178)"><ellipse class="c" cx="14" cy="13.5" rx="14" ry="13.5"/><ellipse class="d" cx="14" cy="13.5" rx="13.5" ry="13"/></g><g transform="translate(8.524 7.384)"><path class="b" d="M.517,9.343h0A.521.521,0,0,1,.1,9.129a.51.51,0,0,1-.074-.461l.95-3.026A1.3,1.3,0,0,1,1.3,5.115L6.025.38a1.3,1.3,0,0,1,1.835,0l1.1,1.1a1.3,1.3,0,0,1,0,1.832L4.231,8.048a1.3,1.3,0,0,1-.527.319L.674,9.319A.526.526,0,0,1,.517,9.343Zm6.425-8.2a.516.516,0,0,0-.367.152L2.171,5.7a.519.519,0,0,0,.734.734l4.4-4.409a.519.519,0,0,0-.367-.886Z" transform="translate(0.001 0)"/><path class="b" d="M8.693,1.3H.649a.649.649,0,0,1,0-1.3H8.693a.649.649,0,1,1,0,1.3" transform="translate(0 11.159)"/></g></g></svg>