<svg xmlns="http://www.w3.org/2000/svg" width="9.794" height="9.611" viewBox="0 0 9.794 9.611"><defs><style>.a{fill:#fff;}</style></defs><g transform="translate(-5.6 -6.9)"><g transform="translate(5.6 6.9)"><path class="a" d="M15.136,114.3h-9.1a.342.342,0,0,0-.341.341.348.348,0,0,0,.341.341h9.1a.342.342,0,0,0,.341-.341A.35.35,0,0,0,15.136,114.3Z" transform="translate(-5.692 -105.371)"/><path class="a" d="M5.608,12.811,5.6,14.432a.352.352,0,0,0,.1.249.333.333,0,0,0,.241.1l1.613-.008a.333.333,0,0,0,.241-.1l5.57-5.57a.351.351,0,0,0,0-.491L11.769,7a.351.351,0,0,0-.491,0L10.164,8.122,5.708,12.57A.37.37,0,0,0,5.608,12.811Zm5.92-5.08L12.65,8.854l-.632.632L10.9,8.363ZM6.3,12.961l4.107-4.107,1.122,1.122-4.107,4.1-1.131.008Z" transform="translate(-5.6 -6.9)"/></g></g></svg>