<svg xmlns="http://www.w3.org/2000/svg" width="9.736" height="9.736" viewBox="0 0 9.736 9.736"><defs><style>.a{fill:#282d5b;}</style></defs><g transform="translate(0 0)"><g transform="translate(0 0)"><path class="a" d="M7.216,80.279a.228.228,0,0,0-.313,0L2.694,84.491a.222.222,0,0,0,.057.355l.346.173V85.6l-1.059.3L.97,84.834l.3-1.059h.581l.173.346a.222.222,0,0,0,.162.12.222.222,0,0,0,.192-.062L6.59,79.965a.221.221,0,0,0,0-.313l-.814-.814a.221.221,0,0,0-.156-.065h0a.221.221,0,0,0-.157.066L.949,83.4s0,.006,0,.008a.217.217,0,0,0-.052.087L.509,84.837l-.5,1.755a.222.222,0,0,0,.213.282.225.225,0,0,0,.061-.008l1.753-.5,1.344-.385.011-.006a.409.409,0,0,0,.075-.044l.009-.006,4.555-4.518a.221.221,0,0,0,0-.314Z" transform="translate(0 -77.139)"/><path class="a" d="M293.759,1.582,292.431.253a.9.9,0,0,0-1.252,0l-.811.819a.222.222,0,0,0,0,.313l2.259,2.261a.221.221,0,0,0,.312,0l.819-.812a.886.886,0,0,0,0-1.253Z" transform="translate(-284.282 -0.002)"/></g></g></svg>