<svg xmlns="http://www.w3.org/2000/svg" xmlns:xlink="http://www.w3.org/1999/xlink" width="38" height="38" viewBox="0 0 38 38"><defs><style>.a{fill:#4ab5f1;}.b{fill:#fff;}.c{filter:url(#a);}</style><filter id="a" x="0" y="0" width="38" height="38" filterUnits="userSpaceOnUse"><feOffset dy="2" input="SourceAlpha"/><feGaussianBlur stdDeviation="2.5" result="b"/><feFlood flood-color="#8f8f8f" flood-opacity="0.4"/><feComposite operator="in" in2="b"/><feComposite in="SourceGraphic"/></filter></defs><g transform="translate(-301.5 -227.563)"><g class="c" transform="matrix(1, 0, 0, 1, 301.5, 227.56)"><circle class="a" cx="11.5" cy="11.5" r="11.5" transform="translate(7.5 5.5)"/></g><g transform="translate(315.64 239.64)"><g transform="translate(0 0)"><g transform="translate(0 0)"><path class="b" d="M7.216,80.279a.228.228,0,0,0-.313,0L2.694,84.491a.222.222,0,0,0,.057.355l.346.173V85.6l-1.059.3L.97,84.834l.3-1.059h.581l.173.346a.222.222,0,0,0,.162.12.222.222,0,0,0,.192-.062L6.59,79.965a.221.221,0,0,0,0-.313l-.814-.814a.221.221,0,0,0-.156-.065h0a.221.221,0,0,0-.157.066L.949,83.4s0,.006,0,.008a.217.217,0,0,0-.052.087L.509,84.837l-.5,1.755a.222.222,0,0,0,.213.282.225.225,0,0,0,.061-.008l1.753-.5,1.344-.385.011-.006a.409.409,0,0,0,.075-.044l.009-.006,4.555-4.518a.221.221,0,0,0,0-.314Z" transform="translate(0 -77.139)"/><path class="b" d="M293.759,1.582,292.431.253a.9.9,0,0,0-1.252,0l-.811.819a.222.222,0,0,0,0,.313l2.259,2.261a.221.221,0,0,0,.312,0l.819-.812a.886.886,0,0,0,0-1.253Z" transform="translate(-284.282 -0.002)"/></g></g></g></g></svg>