<svg xmlns="http://www.w3.org/2000/svg" width="13.63" height="14.204" viewBox="0 0 13.63 14.204"><defs><style>.a{fill:#282d5b;stroke:#282d5b;stroke-width:0.3px;}</style></defs><g transform="translate(0.151 0.15)"><g transform="translate(0 0)"><g transform="translate(0 0)"><path class="a" d="M35.165,25.226H24.237c-.5,0-1.01-.029-1.51,0h-.02c.14.184.281.372.424.556.064-.433.126-.866.19-1.3q.224-1.554.451-3.105.272-1.879.547-3.755.237-1.629.474-3.26c.053-.357.105-.717.155-1.074.023-.167.061-.339.073-.509,0-.006,0-.015,0-.02-.14.108-.281.214-.424.322h8.669c-.14-.108-.281-.214-.424-.322.064.433.126.866.19,1.3q.224,1.554.451,3.105.272,1.879.547,3.755.237,1.629.474,3.26c.076.524.123,1.062.231,1.58,0,.006,0,.015,0,.02a.445.445,0,0,0,.541.307.454.454,0,0,0,.307-.541c-.064-.433-.126-.866-.19-1.3q-.224-1.554-.451-3.105-.272-1.879-.547-3.755-.237-1.629-.474-3.26c-.053-.357-.105-.717-.155-1.074-.023-.167-.038-.342-.073-.509a.05.05,0,0,1,0-.02.44.44,0,0,0-.424-.322H24.6a.445.445,0,0,0-.424.322c-.064.433-.126.866-.19,1.3q-.224,1.554-.451,3.105-.272,1.879-.547,3.755-.237,1.629-.474,3.26c-.076.527-.155,1.054-.231,1.58,0,.006,0,.015,0,.02a.447.447,0,0,0,.424.556H33.635c.5,0,1.007.015,1.51,0h.02a.436.436,0,1,0,0-.872Z" transform="translate(-22.276 -12.2)"/></g><g transform="translate(6.226 0.07)"><path class="a" d="M235,15.024v2.157a.439.439,0,1,0,.878,0V15.024a.439.439,0,1,0-.878,0Z" transform="translate(-235 -14.585)"/></g><g transform="translate(6.22 4.302)"><path class="a" d="M234.812,159.624c0,.738-.009,1.478-.012,2.215a.439.439,0,1,0,.878,0c0-.738.009-1.478.012-2.215a.439.439,0,0,0-.878,0Z" transform="translate(-234.8 -159.185)"/></g><g transform="translate(6.22 8.613)"><g transform="translate(0 0)"><path class="a" d="M234.8,306.924c0,.814.009,1.624.012,2.438a.439.439,0,0,0,.878,0c0-.814-.009-1.624-.012-2.438a.439.439,0,1,0-.878,0Z" transform="translate(-234.799 -306.485)"/></g></g></g></g></svg>