<svg xmlns="http://www.w3.org/2000/svg" width="6.36" height="12.013" viewBox="0 0 6.36 12.013">
    <defs>
        <style>
            .cls-1{fill:#d3cfdf}
        </style>
    </defs>
    <g id="element-icon-facebook">
        <path id="Shape" d="M6.121 0H4.6a2.709 2.709 0 0 0-2.826 2.957V4.32H.24a.242.242 0 0 0-.24.245V6.54a.242.242 0 0 0 .24.245h1.534v4.984a.242.242 0 0 0 .24.245h2a.242.242 0 0 0 .24-.245V6.785h1.794a.242.242 0 0 0 .24-.245V4.565a.248.248 0 0 0-.07-.173.237.237 0 0 0-.17-.072H4.255V3.164c0-.555.13-.837.838-.837H6.12a.242.242 0 0 0 .24-.245V.247A.243.243 0 0 0 6.121 0z" class="cls-1"/>
    </g>
</svg>
