<svg xmlns="http://www.w3.org/2000/svg" width="36.122" height="26.489" viewBox="0 0 36.122 26.489"><defs><style>.a{fill:#d4dbe2;}</style></defs><path class="a" d="M34.55,87.869a7.121,7.121,0,0,0-4.017-2.549,4.808,4.808,0,0,0-4.045-7.412,4.6,4.6,0,0,0-3.123,1.167,9.643,9.643,0,0,0-8.918-5.983,9.281,9.281,0,0,0-6.81,2.822,9.279,9.279,0,0,0-2.822,6.81q0,.245.038.809A8.413,8.413,0,0,0,0,91.152a8.117,8.117,0,0,0,2.474,5.954A8.115,8.115,0,0,0,8.428,99.58H28.9A7.216,7.216,0,0,0,34.55,87.869ZM23.9,87.361a.58.58,0,0,1-.423.178H19.265v6.623a.61.61,0,0,1-.6.6H15.05a.61.61,0,0,1-.6-.6V87.539H10.234a.579.579,0,0,1-.6-.6.707.707,0,0,1,.188-.452l6.6-6.6a.638.638,0,0,1,.865,0L23.912,86.5a.585.585,0,0,1,.169.433A.579.579,0,0,1,23.9,87.361Z" transform="translate(0 -73.091)"/></svg>