<svg xmlns="http://www.w3.org/2000/svg" width="22.168" height="16.626" viewBox="0 0 22.168 16.626"><defs><style>.a{fill:#282d5b;}</style></defs><path class="a" d="M19.859,16.626H2.309A2.312,2.312,0,0,1,0,14.317V2.309A2.312,2.312,0,0,1,2.309,0h17.55a2.312,2.312,0,0,1,2.309,2.309V14.317A2.312,2.312,0,0,1,19.859,16.626ZM3.7,2.772a.923.923,0,0,0-.524,1.685l6.078,4.18a3.266,3.266,0,0,0,3.667,0L19,4.457a.923.923,0,0,0-1.044-1.524L11.87,7.112a1.392,1.392,0,0,1-1.57,0L4.216,2.933A.92.92,0,0,0,3.7,2.772Z"/></svg>