<svg xmlns="http://www.w3.org/2000/svg" width="13.546" height="18.716" viewBox="0 0 13.546 18.716"><defs><style>.a{fill:#282d5b;stroke:#282d5b;stroke-width:0.4px;}</style></defs><g transform="translate(0.2 0.2)"><path class="a" d="M11.52,15.065h-.328v-.982h.4A1.183,1.183,0,0,0,12.771,12.9V11.648a1.183,1.183,0,0,0-1.182-1.182h-.4V9.4a1.625,1.625,0,0,0,0-3.086A4.738,4.738,0,0,0,7.934,1.827V1.362a1.362,1.362,0,0,0-2.724,0v.465A4.514,4.514,0,0,0,1.954,6.316a1.625,1.625,0,0,0,0,3.086v1.064h-.4A1.183,1.183,0,0,0,.375,11.648V12.9a1.174,1.174,0,0,0,.569,1.011.26.26,0,0,0,.369-.09.267.267,0,0,0-.09-.369A.641.641,0,0,1,.911,12.9V11.648A.646.646,0,0,1,1.557,11h.4v4.062H1.625a1.626,1.626,0,0,0,0,3.252H11.52a1.626,1.626,0,0,0,0-3.252ZM11.589,11a.646.646,0,0,1,.645.645V12.9a.646.646,0,0,1-.645.645h-.4V11ZM5.747,1.362a.825.825,0,0,1,1.65,0V1.7a4.643,4.643,0,0,0-1.65,0Zm-4.371,6.5A1.09,1.09,0,0,1,2.465,6.77H8.717a.268.268,0,1,0,0-.537H2.49a4.082,4.082,0,0,1,8.165,0H9.91a.268.268,0,1,0,0,.537h.77a1.089,1.089,0,1,1,0,2.178H2.465A1.09,1.09,0,0,1,1.376,7.859ZM2.49,9.485h8.165v5.58H2.49Zm9.03,8.295H1.625a1.089,1.089,0,0,1,0-2.178H11.52a1.089,1.089,0,0,1,0,2.178Zm0,0" transform="translate(0 0)"/><path class="a" d="M126.98,284.258a2.106,2.106,0,1,0,2.106,2.106A2.108,2.108,0,0,0,126.98,284.258Zm0,3.675a1.569,1.569,0,1,1,1.569-1.569A1.571,1.571,0,0,1,126.98,287.933Zm0,0" transform="translate(-120.407 -274.089)"/><path class="a" d="M155.907,314.258a1.032,1.032,0,1,0,1.032,1.033A1.034,1.034,0,0,0,155.907,314.258Zm0,1.528a.5.5,0,1,1,.5-.5A.5.5,0,0,1,155.907,315.786Zm0,0" transform="translate(-149.334 -303.016)"/></g></svg>