<svg xmlns="http://www.w3.org/2000/svg" xmlns:xlink="http://www.w3.org/1999/xlink" width="50" height="50" viewBox="0 0 50 50">
    <defs>
        <style>
            .cls-1{fill:rgba(230,241,255,.88)}.cls-2{fill:url(#linear-gradient)}.cls-3{fill:url(#linear-gradient-2)}.cls-4,.cls-6{stroke:rgba(0,0,0,0)}.cls-4{fill:url(#linear-gradient-3)}.cls-5,.cls-6{fill:#fff}
        </style>
        <linearGradient id="linear-gradient" x1=".202" x2=".5" y1=".087" y2="1" gradientUnits="objectBoundingBox">
            <stop offset="0" stop-color="#2476e2"/>
            <stop offset="1" stop-color="#08c2ea"/>
        </linearGradient>
        <linearGradient id="linear-gradient-2" x1="-1.946" x2="1.21" y1=".211" y2="2.289" gradientUnits="objectBoundingBox">
            <stop offset="0" stop-color="#1e8cf6"/>
            <stop offset="1" stop-color="#08c2ea"/>
        </linearGradient>
        <linearGradient id="linear-gradient-3" x1="-.13" x2="1.064" y2=".973" xlink:href="#linear-gradient"/>
    </defs>
    <g id="Group_4759" data-name="Group 4759" transform="translate(-474 -1885)">
        <circle id="Ellipse_237" cx="25" cy="25" r="25" class="cls-1" data-name="Ellipse 237" transform="translate(474 1885)"/>
        <g id="Group_4758" data-name="Group 4758" transform="translate(489.596 1897.472)">
            <path id="Path_154" d="M-165.1 149.084a4.092 4.092 0 0 1 .78.262 2.346 2.346 0 0 1 .534.386q1.061 1.06 2.121 2.122a1.991 1.991 0 0 1 .6 1.307c.116 1.9.022 3.8.052 5.7 0 .115.006.229.009.344a.08.08 0 0 1-.048.047l-.01-3.939c0-.318 0-.318-.32-.318-1.576 0-3.152-.01-4.727.006a.787.787 0 0 1-.824-.821c.023-1.7.009-3.4.009-5.1z" class="cls-2" data-name="Path 154" transform="translate(180.245 -149.084)"/>
            <path id="Path_155" d="M-125.792 183.558a1.9 1.9 0 0 1 .635 1.1c.009.038 0 .083.05.1v.788a4.364 4.364 0 0 1-1.419 1.932.358.358 0 0 1-.178-.123c-.46-.464-.929-.92-1.384-1.39a.14.14 0 0 1-.033-.132c.709-.688 1.4-1.4 2.1-2.091a.564.564 0 0 1 .229-.184z" class="cls-3" data-name="Path 155" transform="translate(150.354 -175.641)"/>
            <path id="Union_5" d="M9.434 25.246h-7.24A2.12 2.12 0 0 1 .135 23.88 1.927 1.927 0 0 1 0 23.06V2.151a2.1 2.1 0 0 1 1.271-2A1.352 1.352 0 0 1 1.9 0h11.425a.565.565 0 0 1 .075.4v4.507c0 .107 0 .214.006.32a.626.626 0 0 0 .539.586 2.016 2.016 0 0 0 .369.018h4.409c.1 0 .2 0 .3.007a.222.222 0 0 1 .231.235v3.965a.832.832 0 0 1-.3.493c-1.118 1.128-2.235 2.257-3.372 3.366-.316.308-.639.609-.956.917a.811.811 0 0 0-.23.342c-.32 1.023-.67 2.036-1.008 3.054a.692.692 0 0 0 .935.919q1.481-.492 2.961-.987a.784.784 0 0 0 .393-.238c.444-.448.888-.9 1.341-1.335.065-.063.157-.25.274-.032a1.345 1.345 0 0 1 .02.319v5.86a2.672 2.672 0 0 1-.392 1.527 2.051 2.051 0 0 1-1.785 1H9.823a.312.312 0 0 1-.185-.021.182.182 0 0 1-.1.025c-.038.003-.07-.001-.104-.001zm.012-4.374a.685.685 0 0 0-.009 1.311.5.5 0 0 1 .2.086l.021-.026a.577.577 0 0 1 .315-.051h3.81a2.8 2.8 0 0 0 .32-.008.662.662 0 0 0 0-1.311 2.953 2.953 0 0 0-.319-.008h-3.716a1.167 1.167 0 0 1-.366-.027.143.143 0 0 1-.062-.047.493.493 0 0 1-.193.081zm.131-3.185a.19.19 0 0 1 .064.042.3.3 0 0 1 .239-.064h1.159a.616.616 0 0 0 .692-.678c0-.416-.241-.644-.692-.653H9.88a.3.3 0 0 1-.238-.064.179.179 0 0 1-.057.039 1.175 1.175 0 0 1-.39.03H4.027c-.107 0-.213 0-.32.006a.658.658 0 0 0-.007 1.307c.106.01.213.006.32.006h5.318a.8.8 0 0 1 .24.029zm0-2.958a.2.2 0 0 1 .07.043.305.305 0 0 1 .238-.064h1.154a.616.616 0 0 0 .692-.677c0-.415-.241-.643-.692-.653H9.881a.3.3 0 0 1-.239-.064.176.176 0 0 1-.057.039 1.175 1.175 0 0 1-.39.03H4.029c-.107 0-.213 0-.32.006a.658.658 0 0 0 .012 1.311c.106.008.213 0 .32 0h5.294a.831.831 0 0 1 .238.029zm0-2.956a.2.2 0 0 1 .07.043.306.306 0 0 1 .238-.063h1.154a.616.616 0 0 0 .692-.678c0-.415-.241-.644-.692-.653H9.88a.3.3 0 0 1-.238-.064.177.177 0 0 1-.057.039.9.9 0 0 1-.315.031H4.029c-.107 0-.213 0-.32.005a.658.658 0 0 0 .011 1.315c.106.008.213 0 .32 0h5.295a.831.831 0 0 1 .238.025zm0-2.956a.2.2 0 0 1 .071.044.394.394 0 0 1 .305-.07h3.821c.107 0 .214 0 .32-.007a.6.6 0 0 0 .588-.656.6.6 0 0 0-.588-.656c-.106-.011-.213-.007-.32-.007H9.95a.394.394 0 0 1-.3-.07.16.16 0 0 1-.05.035 1.059 1.059 0 0 1-.389.035H4.012c-.107 0-.214 0-.32.007a.657.657 0 0 0 0 1.312c.106.01.213.006.32.006h5.323a.835.835 0 0 1 .237.027z" class="cls-4" data-name="Union 5"/>
            <path id="Path_166" d="M-149.454 193.832c.523.5 1.044 1.006 1.533 1.542l-4.387 4.372c-.075.075-.144.155-.217.233-.53.471-.985 1.016-1.5 1.5-.117.111-.224.24-.409.23a9.294 9.294 0 0 1-1.469-1.472c-.01-.123.075-.194.15-.268q3.013-3.016 6.029-6.027c.073-.066.137-.176.27-.11z" class="cls-5" data-name="Path 166" transform="translate(171.749 -183.54)"/>
            <path id="Path_167" d="M-154.515 188.5c-.1 0-.156.083-.218.146q-3.024 3.022-6.045 6.046c-.062.062-.145.113-.143.218a.07.07 0 0 1-.066.012c-.494-.431-.933-.919-1.4-1.377a.218.218 0 0 1-.079-.2.851.851 0 0 1 .262-.38c1.465-1.411 2.888-2.866 4.326-4.305.092-.092.179-.191.268-.286l.048-.047 1.262-1.26c.063-.063.131-.12.2-.179a.318.318 0 0 1 .186.109q.623.622 1.244 1.245a.24.24 0 0 1 .1.164z" class="cls-5" data-name="Path 167" transform="translate(176.811 -178.207)"/>
            <path id="Path_169" d="M-163.9 221.763a.247.247 0 0 1 .043.005l1.253 1.272c.062.063.118.132.177.2a15.012 15.012 0 0 1-1.448.505c-.548.188-1.1.372-1.648.549a.631.631 0 0 1-.759-.21.31.31 0 0 1 .109-.159q1.023-1.025 2.048-2.047c.059-.06.111-.151.225-.115z" class="cls-5" data-name="Path 169" transform="translate(179.748 -205.066)"/>
            <path id="Path_170" d="M-164.62 216.566c-.442.376-.823.814-1.242 1.213-.384.365-.729.77-1.139 1.108a.637.637 0 0 1-.157-.758c.223-.685.453-1.368.68-2.051l.355-1.068 1.315 1.338a.685.685 0 0 1 .188.218z" class="cls-5" data-name="Path 170" transform="translate(180.465 -199.869)"/>
            <path id="Path_171" d="M-133.226 183.753l-1.525-1.519c.325-.286.594-.629.929-.906a2.226 2.226 0 0 1 2.927.141 2.622 2.622 0 0 1-.432.463c-.551.557-1.107 1.11-1.662 1.663-.067.069-.123.158-.237.158z" class="cls-3" data-name="Path 171" transform="translate(155.457 -173.552)"/>
            <path id="Union_4" d="M6.594 10.342l-3.764.01H.788A.7.7 0 0 1 0 9.613a.7.7 0 0 1 .788-.741H6.4c.065 0 .131.006.2.009l.042-.017c.474 0 .948 0 1.423.007a.684.684 0 0 1 .754.739.684.684 0 0 1-.754.738c-.474 0-.949.005-1.423.007zm0-2.956L2.83 7.4H.788A.7.7 0 0 1 0 6.657a.7.7 0 0 1 .788-.741q1.931.005 3.862 0H6.4c.065 0 .131.006.2.009a.362.362 0 0 0 .042-.017l1.423.007a.685.685 0 0 1 .754.739.684.684 0 0 1-.754.739c-.474 0-.949 0-1.423.007a.353.353 0 0 0-.048-.013zm0-2.956l-3.764.01H.791A.694.694 0 0 1 0 3.7a.7.7 0 0 1 .788-.741q1.916.005 3.833 0H6.4c.065 0 .131.006.2.009a.352.352 0 0 0 .042-.017c.474 0 .948 0 1.423.007a.684.684 0 0 1 .754.739.684.684 0 0 1-.754.738c-.474 0-.949 0-1.423.007zm0-2.956l-3.764.01H.788A.7.7 0 0 1 0 .746.7.7 0 0 1 .788 0Q2.7.01 4.621.007H6.4c.065 0 .131.006.2.009A.352.352 0 0 0 6.635 0q2.2 0 4.4.006a.656.656 0 0 1 .665.406.782.782 0 0 1-.087.814.706.706 0 0 1-.606.26H6.925c-.1 0-.2 0-.295.007a.352.352 0 0 0-.036-.018z" class="cls-6" data-name="Union 4" transform="translate(2.994 7.383)"/>
            <path id="Union_3" d="M0 .738Q.005.08.743 0v.017c1.484 0 2.968-.007 4.452 0a.671.671 0 0 1 .679.733.671.671 0 0 1-.683.736H.739v.017C.242 1.446 0 1.194 0 .738zm.74.745z" class="cls-6" data-name="Union 3" transform="translate(8.888 20.778)"/>
        </g>
    </g>
</svg>
