<svg xmlns="http://www.w3.org/2000/svg" width="50" height="50" viewBox="0 0 50 50">
    <defs>
        <style>
            .cls-1{fill:rgba(230,241,255,.88)}.cls-2{stroke:rgba(0,0,0,0)}.cls-2,.cls-4{fill:url(#linear-gradient)}.cls-3{fill:#fff}
        </style>
        <linearGradient id="linear-gradient" x1=".06" x2="1" y1=".064" y2=".741" gradientUnits="objectBoundingBox">
            <stop offset="0" stop-color="#2476e2"/>
            <stop offset="1" stop-color="#08c2ea"/>
        </linearGradient>
    </defs>
    <g id="Group_543" data-name="Group 543" transform="translate(-5049 6380)">
        <circle id="Ellipse_26" cx="25" cy="25" r="25" class="cls-1" data-name="Ellipse 26" transform="translate(5049 -6380)"/>
        <g id="Group_8" data-name="Group 8" transform="translate(5060.729 -6364.119)">
            <path id="Union_1" d="M18.049 19.124H1.511a1.359 1.359 0 0 1-1.477-1.075 1.771 1.771 0 0 1-.032-.4Q0 9.568 0 1.484A1.358 1.358 0 0 1 1.466 0h24.021a1.328 1.328 0 0 1 1.442 1.175.562.562 0 0 1 .048.357q.009 1.886.014 3.773h-.154a.379.379 0 0 1-.167.046c-.018.009-.038.014-.056.023-.453.23-.867.345-1.184-.228-.107-.194-.364-.253-.582-.319-.125-.038-.267-.053-.326-.2-.055-.587-.01-1.176-.025-1.764 0-.12.026-.246-.066-.348a.468.468 0 0 0-.353-.073H2.855c-.131 0-.271-.026-.372.093a.585.585 0 0 0-.053.359v13.267c0 .14-.036.292.1.4a1.213 1.213 0 0 0 .517.047h15.664a1.341 1.341 0 0 1 .606.062.266.266 0 0 1 .057.333 62.495 62.495 0 0 1-.771 1.992c-.029.071-.052.16-.158.162a.847.847 0 0 0-.396-.033z" class="cls-2" data-name="Union 1"/>
            <path id="Path_19" d="M-623.842 899.316a1.519 1.519 0 0 1 1.239.811c.036.071.077.121.161.053a2.181 2.181 0 0 1 .582-.247.813.813 0 0 1 .43 0 1.419 1.419 0 0 1 1.215 1.41c.007.127 0 .207.172.2a1.44 1.44 0 0 1 1.162 2.308c.051.033.1.067.152.1a1.429 1.429 0 0 1 .019 2.488c-.086.057-.194.062-.1.237a1.425 1.425 0 0 1-.9 2.161.2.2 0 0 1-.151.094c-.19.016-.25.13-.277.3a1.538 1.538 0 0 1-.552 1 1.417 1.417 0 0 1-1.47.225.373.373 0 0 0-.515.127 1.478 1.478 0 0 1-1.705.5 1.7 1.7 0 0 1-.707-.576c-.1-.143-.191-.189-.354-.1a1.461 1.461 0 0 1-2.108-1.229.214.214 0 0 0-.225-.233 1.49 1.49 0 0 1-.271-.054 1.548 1.548 0 0 1-.883-.63 1.382 1.382 0 0 1-.129-1.431.275.275 0 0 0-.106-.411 1.5 1.5 0 0 1 0-2.421c.171-.112.189-.221.111-.409a1.466 1.466 0 0 1 1.121-2.074c.256-.049.377-.13.406-.419a1.408 1.408 0 0 1 1.239-1.233 3.492 3.492 0 0 1 .382 0c.24.017.457.244.657.2s.293-.343.482-.487a1.382 1.382 0 0 1 .849-.3.282.282 0 0 1 .074.04z" class="cls-2" data-name="Path 19" transform="translate(648.419 -894.628)"/>
            <path id="Path_20" d="M-551.326 1040.672a1.409 1.409 0 0 0 1.772-.643c.088-.134.137-.121.259-.059a1.414 1.414 0 0 0 2.143-1.214c.01-.182.065-.229.23-.215a1.567 1.567 0 0 0 .275-.024c.427 1.074.858 2.146 1.279 3.222.474 1.211.939 2.425 1.4 3.639.035.09.14.193.06.281-.094.1-.213 0-.313-.034-.8-.264-1.6-.517-2.383-.812-.285-.107-.387-.015-.514.213-.453.814-.926 1.618-1.391 2.426-.024.042-.054.082-.113.171-.153-.389-.291-.737-.426-1.086l-1.622-4.18c-.04-.1-.06-.22-.163-.288a2.952 2.952 0 0 1-.493-1.397z" class="cls-2" data-name="Path 20" transform="translate(575.355 -1024.303)"/>
            <path id="Path_21" d="M-638.677 1040.342l.5 1.4-1.849 4.787-.287.742a1.567 1.567 0 0 1-.323-.486c-.425-.725-.846-1.453-1.253-2.188-.1-.176-.188-.189-.361-.129-.938.322-1.88.633-2.871.965l.86-2.3c.322-.787.643-1.573.916-2.378a1.359 1.359 0 0 1 .144-.527c.218-.585.454-1.163.677-1.746.046-.12.071-.263.219-.316.394-.025.529.115.575.55a1.369 1.369 0 0 0 2.018.942c.2-.111.275-.093.378.11a1.453 1.453 0 0 0 .657.574z" class="cls-2" data-name="Path 21" transform="translate(662.706 -1023.974)"/>
            <path id="Path_23" d="M-848.458 878.171l-.922 2.342c-.033.085-.078.165-.117.247-.111-.113-.252-.064-.38-.064h-16.575a.462.462 0 0 1-.03-.27v-13.784a.594.594 0 0 1 .021-.243.537.537 0 0 1 .272-.026h21.6a.931.931 0 0 1 .245.013 3.517 3.517 0 0 1 .033.911 9.807 9.807 0 0 1-.026 1.375 1.5 1.5 0 0 0-1.226.8c-.051.1-.1.111-.187.047a1.851 1.851 0 0 0-.562-.234.834.834 0 0 0-.424 0 1.4 1.4 0 0 0-1.18 1.467c0 .186-.122.143-.23.154a1.436 1.436 0 0 0-1.4 1.236 1.264 1.264 0 0 0 .189.909c.082.141.062.189-.075.278a1.4 1.4 0 0 0-.009 2.457c.125.081.17.12.091.275a1.4 1.4 0 0 0 .892 2.11z" class="cls-3" data-name="Path 23" transform="translate(868.857 -863.98)"/>
            <path id="Union_2" d="M22.17 2.339V.07H.052C.035.1.017.1 0 .069c.077-.1.189-.06.285-.06h21.654c.1 0 .208-.045.285.06v2.273h-.028z" class="cls-2" data-name="Union 2" transform="translate(2.351 2.345)"/>
            <path id="Path_25" d="M-866.937 866.852h.052v14.295c-.095-.066-.062-.167-.062-.254v-13.918c.001-.041.007-.082.01-.123z" class="cls-4" data-name="Path 25" transform="translate(869.288 -864.438)"/>
            <path id="Path_27" d="M-591.642 941.187a3.555 3.555 0 0 1-3.528-3.521 3.563 3.563 0 0 1 3.555-3.563 3.552 3.552 0 0 1 3.522 3.558 3.541 3.541 0 0 1-3.549 3.526z" class="cls-3" data-name="Path 27" transform="translate(616.186 -927.067)"/>
            <path id="Path_28" d="M-579.074 908.033a.4.4 0 0 1 .424 0z" class="cls-4" data-name="Path 28" transform="translate(601.196 -902.732)"/>
            <path id="Path_29" d="M-839.917 1021.91h6.406a1.785 1.785 0 0 1 .277.006.464.464 0 0 1 .432.449.441.441 0 0 1-.377.488 1.41 1.41 0 0 1-.3.028h-12.812a1.4 1.4 0 0 1-.3-.028.447.447 0 0 1-.388-.482.453.453 0 0 1 .451-.458c.092-.009.185 0 .277 0z" class="cls-4" data-name="Path 29" transform="translate(850.699 -1008.836)"/>
            <path id="Path_30" d="M-839.964 951.891h-6.375a1.908 1.908 0 0 1-.307-.009.454.454 0 0 1-.41-.463.463.463 0 0 1 .438-.467c.092-.008.185 0 .277 0h12.78c.475 0 .7.144.7.453.007.331-.219.49-.7.49z" class="cls-4" data-name="Path 30" transform="translate(850.761 -942.752)"/>
            <path id="Path_31" d="M-841.974 986.931h-4.341a2.111 2.111 0 0 1-.307-.01.437.437 0 0 1-.395-.442.446.446 0 0 1 .356-.476.758.758 0 0 1 .214-.015h8.928a.985.985 0 0 1 .184.008.446.446 0 0 1 .394.476.423.423 0 0 1-.416.45c-.286.018-.574.009-.862.01z" class="cls-4" data-name="Path 31" transform="translate(850.725 -975.385)"/>
        </g>
    </g>
</svg>
