<svg xmlns="http://www.w3.org/2000/svg" width="16.136" height="14.998" viewBox="0 0 16.136 14.998"><defs><style>.a{fill:#282d5b;}</style></defs><g transform="translate(0 -18.065)"><g transform="translate(0 18.065)"><g transform="translate(0 0)"><path class="a" d="M14.881,21.716H13.17V18.6a.538.538,0,0,0-.538-.538H3.5a.538.538,0,0,0-.538.538v3.113H1.255A1.256,1.256,0,0,0,0,22.971v5.411a1.256,1.256,0,0,0,1.255,1.255H2.967v2.887a.538.538,0,0,0,.538.538h9.128a.538.538,0,0,0,.538-.538V29.638h1.712a1.256,1.256,0,0,0,1.255-1.255V22.971A1.257,1.257,0,0,0,14.881,21.716ZM4.042,19.141h8.052v2.575H4.042Zm8.052,12.846H4.042v-4.4h8.052C12.094,27.72,12.094,31.886,12.094,31.987Zm2.967-3.6a.179.179,0,0,1-.179.179H13.17V27.049a.538.538,0,0,0-.538-.538H3.5a.538.538,0,0,0-.538.538v1.513H1.255a.179.179,0,0,1-.179-.179V22.971a.179.179,0,0,1,.179-.179H14.881a.179.179,0,0,1,.179.179v5.411Z" transform="translate(0 -18.065)"/></g></g><g transform="translate(10.725 23.799)"><path class="a" d="M342.205,199.988h-1.369a.538.538,0,1,0,0,1.076h1.369a.538.538,0,0,0,0-1.076Z" transform="translate(-340.298 -199.988)"/></g><g transform="translate(5.2 30.097)"><path class="a" d="M170.177,399.834h-4.662a.538.538,0,0,0,0,1.076h4.662a.538.538,0,0,0,0-1.076Z" transform="translate(-164.977 -399.834)"/></g><g transform="translate(5.2 28.401)"><path class="a" d="M170.177,346.006h-4.662a.538.538,0,1,0,0,1.076h4.662a.538.538,0,0,0,0-1.076Z" transform="translate(-164.977 -346.006)"/></g></g></svg>