<svg xmlns="http://www.w3.org/2000/svg" width="12.04" height="12.014" viewBox="0 0 12.04 12.014">
    <defs>
        <style>
            .cls-1{fill:#d3cfdf}
        </style>
    </defs>
    <g id="linkedin">
        <path id="XMLID_802_" d="M2.611 0H.194A.194.194 0 0 0 0 .194v7.765a.194.194 0 0 0 .194.194h2.417a.194.194 0 0 0 .194-.194V.194A.194.194 0 0 0 2.611 0z" class="cls-1" transform="translate(.191 3.86)"/>
        <path id="XMLID_803_" d="M1.595 0a1.594 1.594 0 1 0 1.594 1.593A1.6 1.6 0 0 0 1.595 0z" class="cls-1"/>
        <path id="XMLID_804_" d="M4.827 0A2.839 2.839 0 0 0 2.7.892v-.5a.194.194 0 0 0-.191-.199H.194A.194.194 0 0 0 0 .387v7.765a.194.194 0 0 0 .194.194h2.412a.194.194 0 0 0 .194-.194V4.31c0-1.295.352-1.8 1.254-1.8.983 0 1.061.809 1.061 1.866v3.776a.194.194 0 0 0 .194.194h2.413a.194.194 0 0 0 .194-.194V3.893C7.916 1.968 7.549 0 4.827 0z" class="cls-1" transform="translate(4.124 3.667)"/>
    </g>
</svg>
