<svg xmlns="http://www.w3.org/2000/svg" width="27" height="27" viewBox="0 0 27 27"><defs><style>.a{fill:#fff;stroke:#fec142;}.b{fill:#fec142;}.c{stroke:none;}.d{fill:none;}</style></defs><g transform="translate(0.31 -0.178)"><g class="a" transform="translate(-0.31 0.178)"><circle class="c" cx="13.5" cy="13.5" r="13.5"/><circle class="d" cx="13.5" cy="13.5" r="13"/></g><g transform="translate(8.697 6.523)"><path class="b" d="M8.335,12.908H1.345A1.346,1.346,0,0,1,0,11.563V6.992A1.346,1.346,0,0,1,1.345,5.648H6.991V3.5A2.152,2.152,0,0,0,4.843,1.346c-.05,0-.1,0-.151.005a2.194,2.194,0,0,0-2,2.221v.059a.672.672,0,1,1-1.344,0V3.6A3.647,3.647,0,0,1,2.3,1.128,3.416,3.416,0,0,1,4.67,0c.056,0,.113,0,.168,0a3.5,3.5,0,0,1,3.5,3.5V5.648A1.346,1.346,0,0,1,9.68,6.992v4.571A1.346,1.346,0,0,1,8.335,12.908ZM4.84,8.2A1.076,1.076,0,1,0,5.915,9.278,1.077,1.077,0,0,0,4.84,8.2Z" transform="translate(0 0)"/></g></g></svg>