<svg xmlns="http://www.w3.org/2000/svg" width="13.535" height="8.914" viewBox="0 0 13.535 8.914">
    <defs>
        <style>
            .cls-1{fill:#fff}
        </style>
    </defs>
    <path id="Path_1317" d="M48.042 982.087a.988.988 0 0 0-.99.99v6.933a.988.988 0 0 0 .99.99H59.6a.988.988 0 0 0 .99-.99v-6.933a.988.988 0 0 0-.99-.99zm.7 1.646a.345.345 0 0 1 .268.093l4.349 4.019a.655.655 0 0 0 .918 0l4.359-4.019a.33.33 0 0 1 .449.485l-2.466 2.275 2.461 2.187a.33.33 0 1 1-.438.49l-2.507-2.228-1.408 1.295a1.338 1.338 0 0 1-1.816 0l-1.4-1.295L49 989.262a.33.33 0 1 1-.439-.49l2.461-2.187-2.466-2.275a.33.33 0 0 1 .181-.578z" class="cls-1" data-name="Path 1317" transform="translate(-47.052 -982.087)"/>
</svg>
