<svg xmlns="http://www.w3.org/2000/svg" width="27" height="27" viewBox="0 0 27 27"><defs><style>.a{fill:#fff;stroke:#2ea842;}.b{fill:#2ea842;}.c{stroke:none;}.d{fill:none;}</style></defs><g transform="translate(0 -0.178)"><g class="a" transform="translate(0 0.178)"><circle class="c" cx="13.5" cy="13.5" r="13.5"/><circle class="d" cx="13.5" cy="13.5" r="13"/></g><g transform="translate(7.61 8.697)"><path class="b" d="M11.074,9.272H1.288A1.289,1.289,0,0,1,0,7.984v-6.7A1.289,1.289,0,0,1,1.288,0h9.787a1.289,1.289,0,0,1,1.288,1.288v6.7A1.289,1.289,0,0,1,11.074,9.272ZM2.061,1.546a.515.515,0,0,0-.292.939L5.159,4.816a1.821,1.821,0,0,0,2.045,0l3.389-2.331a.515.515,0,0,0-.582-.85L6.619,3.966a.776.776,0,0,1-.876,0L2.351,1.636A.513.513,0,0,0,2.061,1.546Z" transform="translate(0 0)"/></g></g></svg>