<svg xmlns="http://www.w3.org/2000/svg" width="19.394" height="12.877" viewBox="0 0 19.394 12.877"><defs><style>.a,.b{fill:#282d5b;stroke:#282d5b;}.b{stroke-linejoin:round;}</style></defs><g transform="translate(0.5 0.628)"><g transform="translate(0)"><path class="a" d="M201.689,182.419l.574-.406a.383.383,0,0,0-.441-.625l-.875.617a.007.007,0,0,0-.005,0l0,0-5.352,3.779a2.389,2.389,0,1,0,.453.618l5.025-3.548ZM194,188.978a1.532,1.532,0,1,1,1.532-1.532A1.532,1.532,0,0,1,194,188.978Z" transform="translate(-184.806 -178.253)"/><path class="b" d="M230.975,188.643s-.258-.331-.559-.113a.415.415,0,0,0-.113.545,6.774,6.774,0,0,1,.9,3.687.383.383,0,0,0,.766,0A7.627,7.627,0,0,0,230.975,188.643Z" transform="translate(-213.585 -183.568)"/><path class="a" d="M14.681,98.8a.383.383,0,1,0,.5-.581A9.193,9.193,0,0,0,0,105.193a.383.383,0,1,0,.766,0,8.427,8.427,0,0,1,13.917-6.4Z" transform="translate(0.001 -96)"/></g></g></svg>