<svg xmlns="http://www.w3.org/2000/svg" width="33.63" height="30.299" viewBox="0 0 33.63 30.299">
    <defs>
        <style>
            .cls-1{opacity:.89}.cls-2{fill:#e9f2ff}.cls-3{fill:#fff}.cls-4{fill:url(#linear-gradient)}
        </style>
        <linearGradient id="linear-gradient" x1=".5" x2=".5" y2="1" gradientUnits="objectBoundingBox">
            <stop offset="0" stop-color="#2476e2"/>
            <stop offset="1" stop-color="#08c2ea"/>
        </linearGradient>
    </defs>
    <g id="Group_2945" data-name="Group 2945" transform="translate(-1085.713 -694.441)">
        <g id="Group_2881" class="cls-1" data-name="Group 2881" transform="matrix(.998 .07 -.07 .998 -7860.637 4055.658)">
            <path id="Path_1731" d="M9111.584-3989.355s-1.993 8.4 2.164 14.461c1.035 1.783-.993 6.25-5.443 8.9-5.662 3.371-14.451 3.958-19.52-4.379-2.31-4.82 1.28-12.661 6.992-17.133 6.799-5.327 16.304-6.446 15.807-1.849z" class="cls-2" data-name="Path 1731" transform="translate(-395.998 15)"/>
            <ellipse id="Ellipse_183" cx="2.195" cy="1.674" class="cls-3" data-name="Ellipse 183" rx="2.195" ry="1.674" transform="translate(8720.616 -3959.868)"/>
        </g>
        <g id="money-bag" transform="translate(1091 698)">
            <path id="Path_3771" d="M152.774 248.635a.645.645 0 0 1-.645-.645.645.645 0 1 0-1.289 0 1.937 1.937 0 0 0 1.3 1.825v.564a.645.645 0 1 0 1.289 0v-.569a1.933 1.933 0 0 0-.651-3.754.645.645 0 1 1 .645-.645.645.645 0 1 0 1.289 0 1.937 1.937 0 0 0-1.282-1.82v-.947a.645.645 0 1 0-1.289 0v.942a1.933 1.933 0 0 0 .638 3.759.645.645 0 1 1 0 1.289zm0 0" class="cls-4" data-name="Path 3771" transform="translate(-144.359 -231.602)"/>
            <path id="Path_3772" d="M2.627 20.948A12.314 12.314 0 0 0 8.422 22a14.234 14.234 0 0 0 4.968-.689 1.93 1.93 0 0 0 1.477.689h5.2a1.932 1.932 0 0 0 1.44-3.223 1.929 1.929 0 0 0 0-2.578 1.929 1.929 0 0 0 0-2.578 1.932 1.932 0 0 0-1.44-3.223h-5.2c-.063 0-.125 0-.186.009a8.827 8.827 0 0 0-2.24-1.944 1.932 1.932 0 0 0-.614-3.035l1.075-3.3a.645.645 0 0 0-.613-.844h-2.044a1.934 1.934 0 0 0-3.646 0H4.554a.645.645 0 0 0-.613.844l1.075 3.3A1.932 1.932 0 0 0 4.4 8.465 9.194 9.194 0 0 0 0 16.2a4.969 4.969 0 0 0 2.627 4.748zm18.084-6.037a.645.645 0 0 1-.645.645h-5.2a.645.645 0 1 1 0-1.289h5.2a.645.645 0 0 1 .645.644zm0 2.578a.645.645 0 0 1-.645.645h-5.2a.645.645 0 1 1 0-1.289h5.2a.645.645 0 0 1 .645.644zm-.645 3.223h-5.2a.645.645 0 1 1 0-1.289h5.2a.645.645 0 1 1 0 1.289zm.645-8.379a.645.645 0 0 1-.645.645h-5.2a.645.645 0 0 1 0-1.289h5.2a.645.645 0 0 1 .645.644zm-9.73-4.512H5.844a.644.644 0 0 1 0-1.289H11a.644.644 0 0 1 0 1.289h-.018zM7.133 2.578a.644.644 0 0 0 .645-.645.645.645 0 0 1 1.289 0v1.29a.645.645 0 1 0 1.289 0v-.645H11.4l-.869 2.664h-4.22l-.868-2.664zM5.969 9.11h4.9a7.284 7.284 0 0 1 2.608 1.878 1.929 1.929 0 0 0-.052 2.633 1.929 1.929 0 0 0 0 2.578 1.929 1.929 0 0 0 0 2.578 1.926 1.926 0 0 0-.494 1.289v.039a13.026 13.026 0 0 1-4.513.605 11.167 11.167 0 0 1-5.186-.9 3.677 3.677 0 0 1-1.943-3.61 7.82 7.82 0 0 1 4.68-7.09zm0 0" class="cls-4" data-name="Path 3772"/>
        </g>
    </g>
</svg>
