<svg xmlns="http://www.w3.org/2000/svg" width="33.63" height="30.299" viewBox="0 0 33.63 30.299">
    <defs>
        <style>
            .cls-1{opacity:.89}.cls-2{fill:#e9f2ff}.cls-3{fill:#fff}.cls-4{fill:url(#linear-gradient)}
        </style>
        <linearGradient id="linear-gradient" x1=".231" x2=".872" y2=".813" gradientUnits="objectBoundingBox">
            <stop offset="0" stop-color="#2476e2"/>
            <stop offset="1" stop-color="#08c2ea"/>
        </linearGradient>
    </defs>
    <g id="Group_2944" data-name="Group 2944" transform="translate(-1085.713 -641.441)">
        <g id="Group_2880" class="cls-1" data-name="Group 2880" transform="matrix(.998 .07 -.07 .998 -7860.637 4002.658)">
            <path id="Path_1731" d="M9111.584-3989.355s-1.993 8.4 2.164 14.461c1.035 1.783-.993 6.25-5.443 8.9-5.662 3.371-14.451 3.958-19.52-4.379-2.31-4.82 1.28-12.661 6.992-17.133 6.799-5.327 16.304-6.446 15.807-1.849z" class="cls-2" data-name="Path 1731" transform="translate(-395.998 15)"/>
            <ellipse id="Ellipse_183" cx="2.195" cy="1.674" class="cls-3" data-name="Ellipse 183" rx="2.195" ry="1.674" transform="translate(8720.616 -3959.868)"/>
        </g>
        <g id="time-left" transform="translate(1090.999 643.907)">
            <g id="Layer_2_16_" transform="translate(0 1.688)">
                <g id="Group_2879" data-name="Group 2879">
                    <path id="Path_3763" d="M253.987 423.183c-.188.047-.38.089-.57.124a.917.917 0 0 0 .334 1.8c.227-.042.455-.092.679-.147a.917.917 0 0 0-.443-1.779z" class="cls-4" data-name="Path 3763" transform="translate(-240.283 -402.498)"/>
                    <path id="Path_3764" d="M412.726 138.016a.917.917 0 0 0 1.74-.576 11.565 11.565 0 0 0-.238-.653.917.917 0 1 0-1.7.681c.072.179.137.364.198.548z" class="cls-4" data-name="Path 3764" transform="translate(-392.244 -129.617)"/>
                    <path id="Path_3765" d="M321.822 394.063c-.162.107-.329.21-.5.307a.917.917 0 1 0 .916 1.588c.2-.115.4-.238.591-.365a.917.917 0 0 0-1.011-1.529z" class="cls-4" data-name="Path 3765" transform="translate(-305.14 -374.687)"/>
                    <path id="Path_3766" d="M429.467 208.192a.917.917 0 1 0-1.832.072c.008.193.01.39.005.583a.917.917 0 1 0 1.833.041c.005-.231.003-.465-.006-.696z" class="cls-4" data-name="Path 3766" transform="translate(-406.675 -197.233)"/>
                    <path id="Path_3767" d="M378.622 344.252a.916.916 0 0 0-1.283.183 9.956 9.956 0 0 1-.364.456.917.917 0 0 0 .1 1.292.804.804 0 0 0 .067.052.917.917 0 0 0 1.225-.155c.15-.176.3-.359.435-.544a.917.917 0 0 0-.18-1.284z" class="cls-4" data-name="Path 3767" transform="translate(-358.29 -327.287)"/>
                    <path id="Path_3768" d="M415.152 279.394a.916.916 0 0 0-1.149.6 10 10 0 0 1-.191.552.917.917 0 0 0 1.713.653c.082-.216.159-.436.228-.656a.917.917 0 0 0-.601-1.149z" class="cls-4" data-name="Path 3768" transform="translate(-393.472 -265.742)"/>
                    <path id="Path_3769" d="M9.7 22.5a9.465 9.465 0 0 1-2.351-.747l-.026-.014a9.778 9.778 0 0 1-.521-.264 9.778 9.778 0 0 1-.912-.57 9.565 9.565 0 0 1 .04-15.667l.033-.023A9.581 9.581 0 0 1 16.7 5.132l-.716 1.035c-.2.288-.077.5.272.467l3.111-.278a.512.512 0 0 0 .464-.67L19 2.675c-.094-.337-.333-.378-.532-.09l-.718 1.037a11.32 11.32 0 0 0-8.296-1.764q-.44.076-.868.185H8.58l-.033.009a11.3 11.3 0 0 0-6.267 4.2c-.013.016-.027.031-.039.048-.052.07-.1.142-.154.213-.083.117-.164.238-.242.358l-.026.044a11.3 11.3 0 0 0-1.807 6.668v.023a11.538 11.538 0 0 0 .06.737c.026.231.058.462.1.693A11.312 11.312 0 0 0 3.36 21.17l.012.012a11.549 11.549 0 0 0 1.46 1.22 11.3 11.3 0 0 0 4.545 1.9A.917.917 0 0 0 9.7 22.5z" class="cls-4" data-name="Path 3769" transform="translate(0 -1.688)"/>
                    <path id="Path_3770" d="M206.729 83.2a.742.742 0 0 0-.742.742v7.389l6.757 3.493a.742.742 0 0 0 .681-1.317l-5.955-3.079V83.94a.741.741 0 0 0-.741-.74z" class="cls-4" data-name="Path 3770" transform="translate(-195.891 -79.203)"/>
                </g>
            </g>
        </g>
    </g>
</svg>
