<svg xmlns="http://www.w3.org/2000/svg" xmlns:xlink="http://www.w3.org/1999/xlink" width="86" height="86" viewBox="0 0 86 86">
    <defs>
        <style>
            .cls-1{fill:rgba(230,241,255,.88);opacity:.75}.cls-2{fill:url(#linear-gradient)}.cls-3{fill:url(#linear-gradient-2)}.cls-4,.cls-6{stroke:rgba(0,0,0,0)}.cls-4{fill:url(#linear-gradient-3)}.cls-5,.cls-6{fill:#fff}
        </style>
        <linearGradient id="linear-gradient" x1=".202" x2=".5" y1=".087" y2="1" gradientUnits="objectBoundingBox">
            <stop offset="0" stop-color="#2476e2"/>
            <stop offset="1" stop-color="#08c2ea"/>
        </linearGradient>
        <linearGradient id="linear-gradient-2" x1="-1.946" x2="1.21" y1=".211" y2="2.289" gradientUnits="objectBoundingBox">
            <stop offset="0" stop-color="#1e8cf6"/>
            <stop offset="1" stop-color="#08c2ea"/>
        </linearGradient>
        <linearGradient id="linear-gradient-3" x1="-.13" x2="1.064" y2=".973" xlink:href="#linear-gradient"/>
    </defs>
    <g id="Group_2633" data-name="Group 2633">
        <circle id="Ellipse_26" cx="43" cy="43" r="43" class="cls-1" data-name="Ellipse 26"/>
        <g id="Group_167" data-name="Group 167" transform="translate(26.826 21.452)">
            <path id="Path_154" d="M-163.778 149.084a7.04 7.04 0 0 1 1.342.451 4.035 4.035 0 0 1 .919.664q1.826 1.823 3.648 3.65a3.424 3.424 0 0 1 1.035 2.248c.2 3.266.038 6.536.089 9.8 0 .2.01.394.015.591a.137.137 0 0 1-.083.081l-.018-6.775c0-.546 0-.547-.551-.547-2.71 0-5.421-.017-8.131.01a1.354 1.354 0 0 1-1.417-1.412c.04-2.921.016-5.844.016-8.766z" class="cls-2" data-name="Path 154" transform="translate(189.832 -149.084)"/>
            <path id="Path_155" d="M-124.111 183.558a3.274 3.274 0 0 1 1.092 1.885c.016.066 0 .143.087.173v1.356a7.506 7.506 0 0 1-2.44 3.324.616.616 0 0 1-.307-.212c-.792-.8-1.6-1.582-2.38-2.39a.24.24 0 0 1-.056-.228c1.219-1.184 2.406-2.4 3.614-3.6a.97.97 0 0 1 .39-.308z" class="cls-3" data-name="Path 155" transform="translate(166.357 -169.941)"/>
            <path id="Union_5" d="M16.227 43.422H3.773a3.647 3.647 0 0 1-3.541-2.349A3.315 3.315 0 0 1 0 39.664V3.7A3.609 3.609 0 0 1 2.188.266 2.326 2.326 0 0 1 3.264 0h19.655a.971.971 0 0 1 .133.69v7.753c0 .184-.007.368.011.551A1.076 1.076 0 0 0 23.992 10a3.468 3.468 0 0 0 .634.031h7.583c.169 0 .339 0 .508.013a.382.382 0 0 1 .4.4c0 .07.007.141.007.211 0 2.2.008 4.406 0 6.608a1.431 1.431 0 0 1-.516.847c-1.923 1.94-3.845 3.882-5.8 5.789-.543.53-1.1 1.048-1.644 1.578a1.394 1.394 0 0 0-.4.589c-.55 1.76-1.153 3.5-1.733 5.253a1.19 1.19 0 0 0 1.608 1.58q2.547-.847 5.093-1.7a1.349 1.349 0 0 0 .676-.409c.764-.77 1.527-1.542 2.307-2.3.112-.108.27-.429.471-.055a2.314 2.314 0 0 1 .035.549v10.079a4.6 4.6 0 0 1-.674 2.627 3.527 3.527 0 0 1-3.07 1.722H16.9a.537.537 0 0 1-.319-.036.314.314 0 0 1-.175.044c-.063.01-.122.002-.179.002zm.021-7.523a1.178 1.178 0 0 0-.016 2.254.855.855 0 0 1 .348.148l.036-.044a.992.992 0 0 1 .541-.088H23.71a4.811 4.811 0 0 0 .55-.014 1.138 1.138 0 0 0 0-2.256 5.079 5.079 0 0 0-.549-.013h-6.39a2.008 2.008 0 0 1-.63-.047.246.246 0 0 1-.107-.081.848.848 0 0 1-.336.142zm.225-5.478a.327.327 0 0 1 .111.072.524.524 0 0 1 .411-.11h1.984a1.059 1.059 0 0 0 1.19-1.165c-.005-.715-.414-1.107-1.19-1.123-.354-.007-.707-.006-1.061-.005H16.994a.524.524 0 0 1-.41-.11.308.308 0 0 1-.1.067 2.021 2.021 0 0 1-.671.052H6.927c-.183 0-.367-.006-.55.01a1.131 1.131 0 0 0-.014 2.259c.183.016.367.011.55.011h9.147a1.374 1.374 0 0 1 .414.042zm-.009-5.087a.34.34 0 0 1 .12.074.525.525 0 0 1 .41-.109h1.984a1.059 1.059 0 0 0 1.19-1.165c-.005-.715-.414-1.107-1.19-1.123C18.623 23 18.267 23 17.912 23H17a.523.523 0 0 1-.412-.11.3.3 0 0 1-.1.067 2.021 2.021 0 0 1-.671.052H6.933c-.183 0-.367-.005-.55.01a1.132 1.132 0 0 0 .017 2.262c.183.013.367.007.55.007H16.057a1.43 1.43 0 0 1 .408.046zm0-5.084a.341.341 0 0 1 .12.074.525.525 0 0 1 .409-.109H18.978a1.059 1.059 0 0 0 1.19-1.166c-.005-.714-.414-1.107-1.19-1.123-.354-.007-.707-.006-1.061-.005H16.993a.524.524 0 0 1-.41-.11.3.3 0 0 1-.1.067 1.546 1.546 0 0 1-.541.054H6.928c-.183 0-.367-.006-.55.009A1.132 1.132 0 0 0 6.4 20.2c.183.013.367.007.55.007H16.057a1.43 1.43 0 0 1 .408.043zm0-5.084a.34.34 0 0 1 .122.075.678.678 0 0 1 .525-.121h.133q2.384-.006 4.769 0h1.669c.184 0 .367.006.55-.012a1.036 1.036 0 0 0 1.011-1.128 1.036 1.036 0 0 0-1.011-1.128c-.183-.018-.367-.012-.55-.012H17.111a.678.678 0 0 1-.524-.12.276.276 0 0 1-.082.059 1.822 1.822 0 0 1-.67.06H6.9c-.183 0-.367-.006-.55.011a1.131 1.131 0 0 0 0 2.257c.183.017.367.011.55.011h9.156a1.436 1.436 0 0 1 .409.048z" class="cls-4" data-name="Union 5"/>
            <path id="Path_166" d="M-144.812 193.847c.9.863 1.8 1.73 2.637 2.652l-7.546 7.52c-.129.128-.248.267-.372.4-.911.81-1.695 1.747-2.575 2.587-.2.192-.385.412-.7.4a15.988 15.988 0 0 1-2.527-2.531c-.018-.211.129-.334.257-.462q5.182-5.187 10.37-10.367c.116-.124.227-.314.456-.199z" class="cls-5" data-name="Path 166" transform="translate(183.16 -176.144)"/>
            <path id="Path_167" d="M-148.787 189.659c-.177.006-.268.143-.375.25l-10.4 10.4c-.107.107-.25.194-.246.375a.121.121 0 0 1-.113.02c-.85-.741-1.605-1.58-2.41-2.368a.375.375 0 0 1-.136-.339 1.464 1.464 0 0 1 .45-.653c2.52-2.428 4.967-4.93 7.44-7.405.159-.159.308-.328.461-.493l.083-.081 2.171-2.168c.108-.108.226-.206.34-.308a.547.547 0 0 1 .319.188q1.071 1.07 2.14 2.142a.413.413 0 0 1 .165.282z" class="cls-5" data-name="Path 167" transform="translate(187.135 -171.956)"/>
            <path id="Path_169" d="M-162.188 221.768a.425.425 0 0 1 .074.009l2.155 2.188c.107.109.2.228.3.342a25.814 25.814 0 0 1-2.491.869c-.942.323-1.886.64-2.834.944a1.086 1.086 0 0 1-1.306-.361.533.533 0 0 1 .188-.273q1.759-1.763 3.523-3.521c.11-.102.199-.257.391-.197z" class="cls-5" data-name="Path 169" transform="translate(189.442 -193.049)"/>
            <path id="Path_170" d="M-162.752 217.687c-.76.647-1.416 1.4-2.137 2.086-.66.628-1.253 1.324-1.959 1.905a1.1 1.1 0 0 1-.271-1.3c.384-1.178.779-2.353 1.17-3.529l.611-1.836 2.261 2.3a1.178 1.178 0 0 1 .325.374z" class="cls-5" data-name="Path 170" transform="translate(190.005 -188.968)"/>
            <path id="Path_171" d="M-132.127 185.846l-2.624-2.612c.559-.493 1.022-1.082 1.6-1.558a3.829 3.829 0 0 1 5.034.242 4.509 4.509 0 0 1-.743.8c-.948.959-1.9 1.909-2.858 2.861-.118.113-.214.267-.409.267z" class="cls-3" data-name="Path 171" transform="translate(170.365 -168.3)"/>
            <path id="Union_4" d="M11.341 17.789l-6.473.017H1.355A1.2 1.2 0 0 1 0 16.535a1.2 1.2 0 0 1 1.355-1.275q3.359.009 6.719 0H11c.112 0 .225.011.338.016a.747.747 0 0 0 .071-.028c.816 0 1.631.006 2.447.012a1.177 1.177 0 0 1 1.3 1.27 1.177 1.177 0 0 1-1.3 1.27c-.816.006-1.632.009-2.447.013a.681.681 0 0 0-.068-.024zm0-5.084l-6.473.016H1.355A1.2 1.2 0 0 1 0 11.451a1.2 1.2 0 0 1 1.355-1.275q3.321.009 6.643 0H11c.112 0 .225.01.338.016a.623.623 0 0 0 .071-.028c.816 0 1.631.006 2.447.012a1.178 1.178 0 0 1 1.3 1.271 1.177 1.177 0 0 1-1.3 1.27c-.816.006-1.632.009-2.447.013a.607.607 0 0 0-.068-.03zm0-5.084l-6.473.016H1.356A1.194 1.194 0 0 1 0 6.367a1.2 1.2 0 0 1 1.355-1.275q3.3.009 6.593 0H11c.112 0 .225.01.338.016a.606.606 0 0 0 .071-.028c.816 0 1.631.006 2.447.013a1.177 1.177 0 0 1 1.3 1.27 1.177 1.177 0 0 1-1.3 1.27c-.815.006-1.632.008-2.447.013a.723.723 0 0 0-.068-.025zm0-5.084l-6.473.016H1.355A1.2 1.2 0 0 1 0 1.283 1.2 1.2 0 0 1 1.355.008q3.3.009 6.593 0H11c.112 0 .225.01.338.016A.606.606 0 0 0 11.413 0l7.569.011a1.129 1.129 0 0 1 1.15.7 1.344 1.344 0 0 1-.15 1.4 1.215 1.215 0 0 1-1.042.447q-3.51-.006-7.021 0c-.169 0-.338.008-.507.012a.606.606 0 0 0-.071-.033z" class="cls-6" data-name="Union 4" transform="translate(5.15 12.698)"/>
            <path id="Union_3" d="M0 1.269Q.009.137 1.279 0l-.007.029c2.552 0 5.1-.012 7.657-.005A1.155 1.155 0 0 1 10.1 1.29a1.155 1.155 0 0 1-1.171 1.265c-2.552.006-5.1 0-7.657-.005l.007.029C.416 2.487-.006 2.054 0 1.269zM1.272 2.55z" class="cls-6" data-name="Union 3" transform="translate(15.287 35.739)"/>
        </g>
    </g>
</svg>
