<svg xmlns="http://www.w3.org/2000/svg" width="33.63" height="30.299" viewBox="0 0 33.63 30.299">
    <defs>
        <style>
            .cls-1{opacity:.89}.cls-2{fill:#e9f2ff}.cls-3{fill:#fff}.cls-4{fill:url(#linear-gradient)}
        </style>
        <linearGradient id="linear-gradient" x1=".197" x2=".752" y1=".113" y2="1.392" gradientUnits="objectBoundingBox">
            <stop offset="0" stop-color="#2476e2"/>
            <stop offset="1" stop-color="#08c2ea"/>
        </linearGradient>
    </defs>
    <g id="Group_2943" data-name="Group 2943" transform="translate(-1085.713 -591.441)">
        <g id="Group_2652" class="cls-1" data-name="Group 2652" transform="matrix(.998 .07 -.07 .998 -7860.637 3952.658)">
            <path id="Path_1731" d="M9111.584-3989.355s-1.993 8.4 2.164 14.461c1.035 1.783-.993 6.25-5.443 8.9-5.662 3.371-14.451 3.958-19.52-4.379-2.31-4.82 1.28-12.661 6.992-17.133 6.799-5.327 16.304-6.446 15.807-1.849z" class="cls-2" data-name="Path 1731" transform="translate(-395.998 15)"/>
            <ellipse id="Ellipse_183" cx="2.195" cy="1.674" class="cls-3" data-name="Ellipse 183" rx="2.195" ry="1.674" transform="translate(8720.616 -3959.868)"/>
        </g>
        <g id="process" transform="translate(1092 596)">
            <g id="Group_2842" data-name="Group 2842">
                <g id="Group_2841" data-name="Group 2841">
                    <path id="Path_3756" d="M21.083 8.249h-1.824a8.632 8.632 0 0 0-.472-1.149l1.288-1.288a.917.917 0 0 0 0-1.3l-2.593-2.587a.939.939 0 0 0-1.3 0L14.9 3.214a8.636 8.636 0 0 0-1.146-.472V.917A.917.917 0 0 0 12.833 0H9.167a.917.917 0 0 0-.917.917v1.825a8.633 8.633 0 0 0-1.15.471L5.815 1.925a.938.938 0 0 0-1.3 0l-2.59 2.593a.917.917 0 0 0 0 1.3L3.214 7.1a8.636 8.636 0 0 0-.472 1.15H.917A.917.917 0 0 0 0 9.167V11h.917V9.167H3.08a.458.458 0 0 0 .44-.331 7.766 7.766 0 0 1 .657-1.6.458.458 0 0 0-.077-.544L2.574 5.166l2.592-2.592L6.693 4.1a.458.458 0 0 0 .545.077 7.776 7.776 0 0 1 1.6-.657.458.458 0 0 0 .331-.44V.917h3.667V3.08a.458.458 0 0 0 .331.44 7.776 7.776 0 0 1 1.6.657.458.458 0 0 0 .545-.077l1.525-1.527 2.593 2.593-1.53 1.527a.458.458 0 0 0-.077.546 7.765 7.765 0 0 1 .657 1.6.458.458 0 0 0 .44.331h2.163V11H22V9.165a.917.917 0 0 0-.917-.916z" class="cls-4" data-name="Path 3756"/>
                </g>
            </g>
            <g id="Group_2844" data-name="Group 2844" transform="translate(6.417 5.958)">
                <g id="Group_2843" data-name="Group 2843">
                    <path id="Path_3757" d="M153.916 138.667a4.583 4.583 0 0 0-4.583 4.583v.458h.917v-.458a3.667 3.667 0 0 1 7.333 0v.458h.917v-.458a4.583 4.583 0 0 0-4.584-4.583z" class="cls-4" data-name="Path 3757" transform="translate(-149.333 -138.667)"/>
                </g>
            </g>
            <g id="Group_2846" data-name="Group 2846" transform="translate(10.542 1.833)">
                <g id="Group_2845" data-name="Group 2845">
                    <path id="Rectangle_424" d="M0 0h.917v.917H0z" class="cls-4" data-name="Rectangle 424"/>
                </g>
            </g>
            <g id="Group_2848" data-name="Group 2848" transform="translate(4.583 4.583)">
                <g id="Group_2847" data-name="Group 2847">
                    <path id="Rectangle_425" d="M0 0h.917v.917H0z" class="cls-4" data-name="Rectangle 425"/>
                </g>
            </g>
            <g id="Group_2850" data-name="Group 2850" transform="translate(1.833 10.083)">
                <g id="Group_2849" data-name="Group 2849">
                    <path id="Rectangle_426" d="M0 0h.917v.917H0z" class="cls-4" data-name="Rectangle 426"/>
                </g>
            </g>
            <g id="Group_2852" data-name="Group 2852" transform="translate(19.25 10.083)">
                <g id="Group_2851" data-name="Group 2851">
                    <path id="Rectangle_427" d="M0 0h.917v.917H0z" class="cls-4" data-name="Rectangle 427"/>
                </g>
            </g>
            <g id="Group_2854" data-name="Group 2854" transform="translate(16.5 4.583)">
                <g id="Group_2853" data-name="Group 2853">
                    <path id="Rectangle_428" d="M0 0h.917v.917H0z" class="cls-4" data-name="Rectangle 428"/>
                </g>
            </g>
            <g id="Group_2856" data-name="Group 2856" transform="translate(0 17.417)">
                <g id="Group_2855" data-name="Group 2855">
                    <path id="Path_3758" d="M5.5 405.333H.917a.917.917 0 0 0-.917.917V409a.917.917 0 0 0 .917.917H5.5a.917.917 0 0 0 .917-.917v-2.75a.917.917 0 0 0-.917-.917zm0 3.667H.917v-2.75H5.5z" class="cls-4" data-name="Path 3758" transform="translate(0 -405.333)"/>
                </g>
            </g>
            <g id="Group_2858" data-name="Group 2858" transform="translate(15.583 17.417)">
                <g id="Group_2857" data-name="Group 2857">
                    <path id="Path_3759" d="M368.167 405.333h-4.583a.917.917 0 0 0-.917.917V409a.917.917 0 0 0 .917.917h4.583a.917.917 0 0 0 .917-.917v-2.75a.917.917 0 0 0-.917-.917zm0 3.667h-4.583v-2.75h4.583z" class="cls-4" data-name="Path 3759" transform="translate(-362.667 -405.333)"/>
                </g>
            </g>
            <g id="Group_2860" data-name="Group 2860" transform="translate(7.792 17.417)">
                <g id="Group_2859" data-name="Group 2859">
                    <path id="Path_3760" d="M186.834 405.333h-4.583a.917.917 0 0 0-.917.917V409a.917.917 0 0 0 .917.917h4.583a.917.917 0 0 0 .917-.917v-2.75a.917.917 0 0 0-.917-.917zm0 3.667h-4.583v-2.75h4.583z" class="cls-4" data-name="Path 3760" transform="translate(-181.334 -405.333)"/>
                </g>
            </g>
            <g id="Group_2862" data-name="Group 2862" transform="translate(2.75 13.75)">
                <g id="Group_2861" data-name="Group 2861">
                    <path id="Path_3761" d="M80.042 320H64.458a.458.458 0 0 0-.458.458v2.292h.917v-1.833h14.666v1.833h.917v-2.292a.458.458 0 0 0-.458-.458z" class="cls-4" data-name="Path 3761" transform="translate(-64 -320)"/>
                </g>
            </g>
            <g id="Group_2864" data-name="Group 2864" transform="translate(10.542 10.542)">
                <g id="Group_2863" data-name="Group 2863">
                    <path id="Rectangle_429" d="M0 0h.917v5.958H0z" class="cls-4" data-name="Rectangle 429"/>
                </g>
            </g>
            <g id="Group_2866" data-name="Group 2866" transform="translate(1.833 19.25)">
                <g id="Group_2865" data-name="Group 2865">
                    <path id="Rectangle_430" d="M0 0h.917v.917H0z" class="cls-4" data-name="Rectangle 430"/>
                </g>
            </g>
            <g id="Group_2868" data-name="Group 2868" transform="translate(3.667 19.25)">
                <g id="Group_2867" data-name="Group 2867">
                    <path id="Rectangle_431" d="M0 0h.917v.917H0z" class="cls-4" data-name="Rectangle 431"/>
                </g>
            </g>
            <g id="Group_2870" data-name="Group 2870" transform="translate(9.625 19.25)">
                <g id="Group_2869" data-name="Group 2869">
                    <path id="Rectangle_432" d="M0 0h.917v.917H0z" class="cls-4" data-name="Rectangle 432"/>
                </g>
            </g>
            <g id="Group_2872" data-name="Group 2872" transform="translate(11.458 19.25)">
                <g id="Group_2871" data-name="Group 2871">
                    <path id="Rectangle_433" d="M0 0h.917v.917H0z" class="cls-4" data-name="Rectangle 433"/>
                </g>
            </g>
            <g id="Group_2874" data-name="Group 2874" transform="translate(17.417 19.25)">
                <g id="Group_2873" data-name="Group 2873">
                    <path id="Rectangle_434" d="M0 0h.917v.917H0z" class="cls-4" data-name="Rectangle 434"/>
                </g>
            </g>
            <g id="Group_2876" data-name="Group 2876" transform="translate(19.25 19.25)">
                <g id="Group_2875" data-name="Group 2875">
                    <path id="Rectangle_435" d="M0 0h.917v.917H0z" class="cls-4" data-name="Rectangle 435"/>
                </g>
            </g>
            <g id="Group_2878" data-name="Group 2878" transform="translate(8.708 8.25)">
                <g id="Group_2877" data-name="Group 2877">
                    <path id="Path_3762" d="M204.959 192a2.292 2.292 0 0 0-2.292 2.292v.458h.917v-.458a1.375 1.375 0 0 1 2.75 0v.458h.917v-.458a2.292 2.292 0 0 0-2.292-2.292z" class="cls-4" data-name="Path 3762" transform="translate(-202.667 -192)"/>
                </g>
            </g>
        </g>
    </g>
</svg>
