<svg xmlns="http://www.w3.org/2000/svg" width="33.63" height="30.299" viewBox="0 0 33.63 30.299">
    <defs>
        <style>
            .cls-1{opacity:.89}.cls-2{fill:#e9f2ff}.cls-3{fill:#fff}.cls-4{fill:url(#linear-gradient)}
        </style>
        <linearGradient id="linear-gradient" x1=".5" x2=".5" y2="1" gradientUnits="objectBoundingBox">
            <stop offset="0" stop-color="#2476e2"/>
            <stop offset="1" stop-color="#08c2ea"/>
        </linearGradient>
    </defs>
    <g id="Group_2946" data-name="Group 2946" transform="translate(-1085.713 -746.44)">
        <g id="Group_2888" class="cls-1" data-name="Group 2888" transform="matrix(.998 .07 -.07 .998 -7860.637 4107.658)">
            <path id="Path_1731" d="M9111.584-3989.355s-1.993 8.4 2.164 14.461c1.035 1.783-.993 6.25-5.443 8.9-5.662 3.371-14.451 3.958-19.52-4.379-2.31-4.82 1.28-12.661 6.992-17.133 6.799-5.327 16.304-6.446 15.807-1.849z" class="cls-2" data-name="Path 1731" transform="translate(-395.998 15)"/>
            <ellipse id="Ellipse_183" cx="2.195" cy="1.674" class="cls-3" data-name="Ellipse 183" rx="2.195" ry="1.674" transform="translate(8720.616 -3959.868)"/>
        </g>
        <g id="approval" transform="translate(1091 751.867)">
            <path id="Path_3791" d="M24.177 17.43a5.829 5.829 0 0 0-7.284-4.615l-.01-.01a3.355 3.355 0 0 0-1.51-.769l-3.043-.665a1.154 1.154 0 0 1-.883-.919 3.883 3.883 0 0 0 1.577-3.122V4.45a2.61 2.61 0 0 0 .618-1.689V.474A.474.474 0 0 0 13.168 0H8.559a3.311 3.311 0 0 0-3.307 3.307V7.33a3.877 3.877 0 0 0 1.306 2.9v.021a1.153 1.153 0 0 1-.9 1.119l-3.024.664A3.351 3.351 0 0 0 0 15.31v4.121a.474.474 0 0 0 .474.474H12.8a5.825 5.825 0 0 0 4.626 4.272 5.886 5.886 0 0 0 1.019.089 5.808 5.808 0 0 0 2.376-.508.474.474 0 1 0-.387-.865 4.882 4.882 0 1 1 2.456-2.449.474.474 0 0 0 .864.39 5.819 5.819 0 0 0 .427-3.4zM6.2 3.307A2.362 2.362 0 0 1 8.559.948h4.136v1.814a1.676 1.676 0 0 1-1.675 1.674H6.2zm0 4.023V5.384h4.82a2.606 2.606 0 0 0 1.056-.223V7.33a2.938 2.938 0 1 1-5.877 0zm1.226 3.488a3.877 3.877 0 0 0 3.171.113 2.118 2.118 0 0 0 1.013 1.178l-2.617 6.117-2.616-6.116a2.119 2.119 0 0 0 1.049-1.292zM.947 15.31a2.418 2.418 0 0 1 1.889-2.348l2.628-.577 2.811 6.572H.947zm13.366-1a5.819 5.819 0 0 0-1.681 4.643H9.711l2.812-6.573 2.648.579a2.407 2.407 0 0 1 .665.255 5.8 5.8 0 0 0-1.523 1.1zm0 0" class="cls-4" data-name="Path 3791"/>
            <path id="Path_3792" d="M324.477 332.233l-1.341-1.34a.474.474 0 0 0-.67 0l-1.824 1.824-.617-.618a.474.474 0 0 0-.67 0l-1.34 1.34a.474.474 0 0 0 0 .67l2.293 2.293a.474.474 0 0 0 .669 0l3.5-3.5a.474.474 0 0 0 0-.67zm-3.835 3.164l-1.623-1.623.67-.67.618.618a.474.474 0 0 0 .67 0l1.823-1.822.67.67zm0 0" class="cls-4" data-name="Path 3792" transform="translate(-302.81 -315.078)"/>
            <path id="Path_3793" d="M459.357 458.883a.474.474 0 1 0 .335.139.478.478 0 0 0-.335-.139zm0 0" class="cls-4" data-name="Path 3793" transform="translate(-437.135 -437.134)"/>
        </g>
    </g>
</svg>
