<svg xmlns="http://www.w3.org/2000/svg" width="86" height="86" viewBox="0 0 86 86">
    <defs>
        <style>
            .cls-1{fill:rgba(230,241,255,.88)}.cls-2{fill:url(#linear-gradient)}.cls-3{fill:#fff}
        </style>
        <linearGradient id="linear-gradient" x1=".06" x2="1" y1=".064" y2=".741" gradientUnits="objectBoundingBox">
            <stop offset="0" stop-color="#2476e2"/>
            <stop offset="1" stop-color="#08c2ea"/>
        </linearGradient>
    </defs>
    <g id="Group_543" data-name="Group 543" transform="translate(-5049 6380)">
        <circle id="Ellipse_26" cx="43" cy="43" r="43" class="cls-1" data-name="Ellipse 26" transform="translate(5049 -6380)"/>
        <g id="Group_8" data-name="Group 8" transform="translate(5069.173 -6352.684)">
            <path id="Union_1" d="M31.044 32.893H2.599a2.338 2.338 0 0 1-2.541-1.849A3.045 3.045 0 0 1 0 30.361V2.552A2.336 2.336 0 0 1 2.521 0h41.317a2.284 2.284 0 0 1 2.48 2.02.966.966 0 0 1 .083.614q.016 3.244.023 6.489h-.265a.652.652 0 0 1-.287.08c-.031.015-.065.024-.1.04-.779.395-1.492.594-2.037-.393-.184-.333-.625-.435-1-.549-.215-.065-.459-.092-.561-.346-.094-1.01-.017-2.023-.044-3.033-.006-.206.044-.423-.114-.6a.806.806 0 0 0-.607-.126h-36.5c-.225 0-.465-.045-.641.16a1.006 1.006 0 0 0-.092.618v22.82c0 .24-.062.5.169.687a2.086 2.086 0 0 0 .89.081h26.942a2.307 2.307 0 0 1 1.042.107.457.457 0 0 1 .1.573c-.418 1.151-.869 2.29-1.326 3.426-.049.121-.09.275-.271.279a1.457 1.457 0 0 0-.678-.054z" class="cls-2" data-name="Union 1"/>
            <path id="Path_19" d="M-619.564 899.348a2.614 2.614 0 0 1 2.131 1.395c.062.123.133.208.277.092a3.749 3.749 0 0 1 1-.425 1.4 1.4 0 0 1 .74 0 2.441 2.441 0 0 1 2.09 2.425c.012.218 0 .356.3.352a2.477 2.477 0 0 1 2 3.97c.087.057.173.116.261.171a2.458 2.458 0 0 1 .034 4.279c-.149.1-.334.107-.178.407a2.452 2.452 0 0 1-1.547 3.717.335.335 0 0 1-.26.161c-.326.027-.429.224-.476.522a2.644 2.644 0 0 1-.949 1.711 2.437 2.437 0 0 1-2.529.387.642.642 0 0 0-.885.218 2.542 2.542 0 0 1-2.933.855 2.934 2.934 0 0 1-1.216-.992c-.173-.246-.329-.325-.609-.171a2.512 2.512 0 0 1-3.626-2.114.367.367 0 0 0-.388-.4 2.575 2.575 0 0 1-.467-.094 2.662 2.662 0 0 1-1.519-1.084 2.376 2.376 0 0 1-.222-2.461.474.474 0 0 0-.183-.708 2.574 2.574 0 0 1 0-4.163c.294-.193.325-.381.191-.7a2.522 2.522 0 0 1 1.927-3.568c.441-.084.648-.223.7-.721a2.421 2.421 0 0 1 2.131-2.12 5.977 5.977 0 0 1 .656 0c.413.029.787.419 1.13.342s.5-.59.83-.838a2.378 2.378 0 0 1 1.461-.518.491.491 0 0 1 .128.073z" class="cls-2" data-name="Path 19" transform="translate(661.838 -891.286)"/>
            <path id="Path_20" d="M-551.326 1042.224a2.424 2.424 0 0 0 3.048-1.107c.151-.231.237-.209.446-.1a2.433 2.433 0 0 0 3.686-2.088c.018-.314.111-.393.4-.37a2.713 2.713 0 0 0 .472-.041c.734 1.847 1.476 3.691 2.2 5.542.815 2.083 1.615 4.171 2.416 6.259.06.155.24.331.1.483-.161.177-.367 0-.538-.058-1.371-.453-2.748-.89-4.1-1.4-.49-.184-.666-.026-.884.366-.78 1.4-1.592 2.783-2.393 4.172-.042.073-.092.141-.194.3-.263-.67-.5-1.268-.733-1.868q-1.394-3.6-2.789-7.19c-.068-.175-.1-.379-.28-.5a5.079 5.079 0 0 1-.857-2.4z" class="cls-2" data-name="Path 20" transform="translate(592.656 -1014.07)"/>
            <path id="Path_21" d="M-634.035 1041.912l.856 2.4-3.18 8.234-.494 1.276a2.7 2.7 0 0 1-.556-.836c-.732-1.247-1.456-2.5-2.155-3.764-.167-.3-.324-.324-.622-.222-1.614.554-3.234 1.089-4.938 1.66l1.479-3.948c.553-1.353 1.107-2.705 1.575-4.091a2.336 2.336 0 0 1 .248-.907c.375-1.006.78-2 1.164-3 .079-.207.123-.452.376-.544.677-.043.911.2.989.947a2.354 2.354 0 0 0 3.47 1.62c.352-.191.472-.159.649.19a2.5 2.5 0 0 0 1.139.985z" class="cls-2" data-name="Path 21" transform="translate(675.365 -1013.758)"/>
            <path id="Path_23" d="M-835.477 886.675l-1.587 4.029c-.057.146-.134.284-.2.425-.19-.194-.434-.11-.653-.11q-13.911-.007-27.821 0c-.229 0-.458-.005-.687-.008a.794.794 0 0 1-.052-.465v-23.709a1.024 1.024 0 0 1 .035-.418.925.925 0 0 1 .468-.045h37.159a1.6 1.6 0 0 1 .421.022 6.046 6.046 0 0 1 .056 1.568 16.838 16.838 0 0 1-.045 2.365 2.575 2.575 0 0 0-2.109 1.383c-.088.172-.17.19-.322.08a3.18 3.18 0 0 0-.967-.4 1.434 1.434 0 0 0-.73 0 2.4 2.4 0 0 0-2.029 2.523c0 .32-.209.246-.4.265a2.469 2.469 0 0 0-2.4 2.127 2.173 2.173 0 0 0 .325 1.563c.141.242.107.326-.13.478a2.415 2.415 0 0 0-.015 4.227c.216.14.292.206.156.473a2.416 2.416 0 0 0 1.527 3.627z" class="cls-3" data-name="Path 23" transform="translate(870.563 -862.266)"/>
            <path id="Union_2" d="M38.133 4.023v-3.9H.089C.059.17.029.17 0 .119c.133-.179.325-.1.49-.1h37.245c.165 0 .358-.077.489.1v3.909l-.049.005z" class="cls-2" data-name="Union 2" transform="translate(4.044 4.034)"/>
            <path id="Path_25" d="M-866.926 866.852h.09v24.587c-.163-.114-.106-.287-.106-.437v-23.938c0-.071.011-.141.016-.212z" class="cls-2" data-name="Path 25" transform="translate(870.971 -862.699)"/>
            <path id="Path_27" d="M-589.1 946.286a6.114 6.114 0 0 1-6.069-6.055 6.128 6.128 0 0 1 6.115-6.128 6.109 6.109 0 0 1 6.059 6.12 6.091 6.091 0 0 1-6.105 6.063z" class="cls-3" data-name="Path 27" transform="translate(631.317 -922)"/>
            <path id="Path_28" d="M-579.074 908.077a.691.691 0 0 1 .73 0z" class="cls-2" data-name="Path 28" transform="translate(617.124 -898.958)"/>
            <path id="Path_29" d="M-834.824 1021.911h11.019a3.073 3.073 0 0 1 .476.011.8.8 0 0 1 .743.772.758.758 0 0 1-.649.839 2.413 2.413 0 0 1-.524.048h-22.037a2.42 2.42 0 0 1-.524-.047.769.769 0 0 1-.667-.828.78.78 0 0 1 .775-.788c.158-.015.317-.006.476-.006z" class="cls-2" data-name="Path 29" transform="translate(853.369 -999.425)"/>
            <path id="Path_30" d="M-834.858 952.57h-10.964a3.285 3.285 0 0 1-.529-.015.78.78 0 0 1-.705-.8.8.8 0 0 1 .753-.8c.157-.014.318-.008.476-.008h21.981c.817 0 1.2.248 1.212.78.013.569-.377.843-1.208.843z" class="cls-2" data-name="Path 30" transform="translate(853.428 -936.853)"/>
            <path id="Path_31" d="M-838.342 987.611h-7.467a3.628 3.628 0 0 1-.529-.018.752.752 0 0 1-.679-.759.768.768 0 0 1 .612-.819 1.305 1.305 0 0 1 .368-.026h15.357a1.69 1.69 0 0 1 .317.013.767.767 0 0 1 .678.819.728.728 0 0 1-.715.775c-.493.031-.988.016-1.482.016z" class="cls-2" data-name="Path 31" transform="translate(853.394 -967.751)"/>
        </g>
    </g>
</svg>
