<svg xmlns="http://www.w3.org/2000/svg" width="9.775" height="9.776" viewBox="0 0 9.775 9.776"><defs><style>.a{fill:#4ab5f1;}</style></defs><path class="a" d="M131.484,0h-3.361a.6.6,0,0,0,0,1.205h1.907l-3.18,3.18a.6.6,0,1,0,.852.852l3.18-3.18V3.964a.6.6,0,1,0,1.205,0V.6A.6.6,0,0,0,131.484,0Z" transform="translate(-122.311)"/><path class="a" d="M6.925,59.71H1.033V53.818H5.464L6.5,52.785H.516A.516.516,0,0,0,0,53.3v6.925a.516.516,0,0,0,.516.516H7.442a.516.516,0,0,0,.516-.516V54.246L6.925,55.279Z" transform="translate(0 -50.968)"/></svg>