<svg xmlns="http://www.w3.org/2000/svg" width="40.007" height="25.677" viewBox="0 0 40.007 25.677"><defs><style>.a,.b{fill:#282d5b;stroke:#282d5b;}.b{stroke-linejoin:round;}</style></defs><g transform="translate(3990.001 -1641.906)"><g transform="translate(-3989.501 1642.415)"><path class="a" d="M213.085,183.653l1.218-.861a.812.812,0,0,0-.936-1.326l-1.856,1.309a.015.015,0,0,0-.011,0,.019.019,0,0,1-.008.008L200.142,190.8a5.067,5.067,0,1,0,.96,1.311l10.657-7.524Zm-16.308,13.909a3.25,3.25,0,1,1,3.25-3.249,3.25,3.25,0,0,1-3.25,3.249Z" transform="translate(-177.282 -174.818)"/><path class="b" d="M231.791,188.854s-.546-.7-1.185-.24a.88.88,0,0,0-.24,1.155,14.365,14.365,0,0,1,1.911,7.818.813.813,0,0,0,1.624,0A16.174,16.174,0,0,0,231.791,188.854Z" transform="translate(-194.913 -178.091)"/><path class="a" d="M31.134,101.933a.812.812,0,1,0,1.059-1.232A19.5,19.5,0,0,0,0,115.5a.813.813,0,1,0,1.624,0,17.872,17.872,0,0,1,29.513-13.562Z" transform="translate(0.001 -96)"/></g></g></svg>