<svg xmlns="http://www.w3.org/2000/svg" width="28.44" height="39.39" viewBox="0 0 28.44 39.39"><defs><style>.a{fill:#282d5b;stroke:#282d5b;stroke-width:0.6px;}</style></defs><g transform="translate(0.3 0.3)"><path class="a" d="M24.4,31.9H23.7V29.825h.841a2.506,2.506,0,0,0,2.5-2.5V24.668a2.506,2.506,0,0,0-2.5-2.5H23.7V19.911a3.442,3.442,0,0,0,0-6.535s.094-7.4-6.9-9.507V2.884a2.884,2.884,0,0,0-5.768,0V3.87a9.559,9.559,0,0,0-6.9,9.507,3.442,3.442,0,0,0,0,6.535v2.254H3.3a2.506,2.506,0,0,0-2.5,2.5v2.654A2.487,2.487,0,0,0,2,29.463a.551.551,0,0,0,.78-.191.566.566,0,0,0-.19-.781,1.358,1.358,0,0,1-.658-1.169V24.668A1.368,1.368,0,0,1,3.3,23.3h.841v8.6H3.443a3.443,3.443,0,0,0,0,6.886H24.4a3.443,3.443,0,0,0,0-6.886Zm.146-8.6a1.368,1.368,0,0,1,1.367,1.367v2.654a1.368,1.368,0,0,1-1.367,1.367H23.7V23.3ZM12.172,2.884a1.748,1.748,0,0,1,3.5,0v.708a9.833,9.833,0,0,0-3.5,0ZM2.914,16.644a2.309,2.309,0,0,1,2.307-2.307h13.24a.568.568,0,1,0,0-1.136H5.274a8.646,8.646,0,0,1,17.291,0H20.988a.568.568,0,1,0,0,1.136h1.631a2.307,2.307,0,1,1,0,4.613H5.221a2.309,2.309,0,0,1-2.306-2.307Zm2.36,3.443H22.566V31.9H5.274ZM24.4,37.653H3.443a2.307,2.307,0,0,1,0-4.613H24.4a2.307,2.307,0,1,1,0,4.613Zm0,0" transform="translate(0 0)"/><path class="a" d="M129.334,284.258a4.459,4.459,0,1,0,4.459,4.46A4.465,4.465,0,0,0,129.334,284.258Zm0,7.782a3.323,3.323,0,1,1,3.323-3.323A3.327,3.327,0,0,1,129.334,292.04Zm0,0" transform="translate(-115.414 -262.722)"/><path class="a" d="M157.061,314.258a2.187,2.187,0,1,0,2.186,2.187A2.189,2.189,0,0,0,157.061,314.258Zm0,3.237a1.05,1.05,0,1,1,1.05-1.05A1.051,1.051,0,0,1,157.061,317.495Zm0,0" transform="translate(-143.142 -290.449)"/></g></svg>