<svg xmlns="http://www.w3.org/2000/svg" width="42.792" height="31.441" viewBox="0 0 42.792 31.441"><defs><style>.a{fill:#282d5b;stroke:#282d5b;stroke-width:0.6px;}</style></defs><g transform="translate(0.3 -68.567)"><g transform="translate(0 68.867)"><path class="a" d="M34.157,78.727H31.5l.8-9.189c0-.017,0-.033,0-.049s0,0,0,0h0a.618.618,0,0,0-.373-.566l-.006,0-.042-.015-.016-.006-.036-.009-.025-.006-.032,0-.03,0H19.037a.618.618,0,0,0,0,1.236H31.011l-1.23,14.122v0l-.31,3.563H7.995l.359-3.708h4.089a.618.618,0,1,0,0-1.236H8.474l.758-7.828H15.74a.618.618,0,1,0,0-1.236H9.352l.357-3.68h6.856a.618.618,0,0,0,0-1.236H9.147a.618.618,0,0,0-.6.488l0,.006c0,.015-.005.031-.007.047s0,.01,0,.015v0L8.11,73.783H.618a.618.618,0,1,0,0,1.236H7.99l-.758,7.828H5.027a.618.618,0,1,0,0,1.236H7.112L6.7,88.346v0l-.639,6.591v0c0,.009,0,.017,0,.026s0,.022,0,.034v0c0,.016,0,.032,0,.047s0,.01,0,.015,0,.032.007.047,0,.009,0,.014.006.023.009.035,0,.016.006.024l0,.007a.618.618,0,0,0,.147.242l0,0,.021.019a.613.613,0,0,0,.143.1l.033.016.01,0,.047.017h0l.056.014H6.56l.054.008h0l.06,0H9.428a4.7,4.7,0,0,0,9.328,0h9.913a4.7,4.7,0,0,0,9.328,0H40.75c.021,0,.041,0,.061,0h.011l.048-.007.02,0,.036-.009.024-.008.03-.011L41,95.565l.027-.013.025-.013.025-.015.023-.015.025-.018.02-.016.025-.022.017-.016.025-.027.013-.015.026-.034.009-.012c.01-.015.02-.031.028-.047l0,0c.009-.017.018-.035.026-.053l.006-.016c.005-.013.01-.026.014-.039s0-.017.007-.026.006-.021.008-.031,0-.019,0-.028,0-.016,0-.025c.026-.21.51-4.093.726-6.6v-.007c.062-.724.1-1.333.1-1.706A8.044,8.044,0,0,0,34.157,78.727Zm-2.764,1.236h2.528L33.6,83.672H31.07Zm-17.3,18.508A3.47,3.47,0,1,1,17.562,95,3.474,3.474,0,0,1,14.092,98.472Zm19.241,0A3.47,3.47,0,1,1,36.8,95,3.473,3.473,0,0,1,33.333,98.472Zm6.87-4.088H38a4.7,4.7,0,0,0-9.328,0H18.756a4.7,4.7,0,0,0-9.328,0H7.356l.519-5.357H30.038a.61.61,0,0,0,.061,0l.011,0,.048-.007.02,0L30.216,89l.024-.008.031-.011.025-.011.027-.013.025-.014.025-.015.023-.016.024-.018.021-.018.023-.021.019-.019.022-.024.016-.019.02-.027.014-.02.017-.029.012-.022.014-.03.011-.024c0-.01.007-.02.011-.03l.009-.027c0-.01,0-.019.007-.029s.005-.02.007-.03,0-.02,0-.029,0-.02,0-.031v0l.31-3.556h3.194c1.894,0,2.748.981,3.652,2.02A5.071,5.071,0,0,0,40.8,88.974C40.623,90.875,40.333,93.316,40.2,94.384Zm.706-6.649a4.044,4.044,0,0,1-2.168-1.619,5.8,5.8,0,0,0-3.9-2.407l.32-3.671a6.809,6.809,0,0,1,5.8,6.724C40.955,86.994,40.938,87.33,40.909,87.735Z" transform="translate(0 -68.867)"/></g><g transform="translate(11.826 92.736)"><path class="a" d="M145.774,358.524a2.266,2.266,0,1,0,2.266,2.266A2.269,2.269,0,0,0,145.774,358.524Zm0,3.3a1.03,1.03,0,1,1,1.03-1.03A1.031,1.031,0,0,1,145.774,361.82Z" transform="translate(-143.508 -358.524)"/></g><g transform="translate(31.067 92.736)"><path class="a" d="M379.262,358.524a2.266,2.266,0,1,0,2.266,2.266A2.269,2.269,0,0,0,379.262,358.524Zm0,3.3a1.03,1.03,0,1,1,1.03-1.03A1.031,1.031,0,0,1,379.262,361.82Z" transform="translate(-376.996 -358.524)"/></g><g transform="translate(2.211 78.728)"><g transform="translate(0 0)"><path class="a" d="M30.474,188.527H27.452a.618.618,0,1,0,0,1.236h3.021a.618.618,0,1,0,0-1.236Z" transform="translate(-26.834 -188.527)"/></g></g></g></svg>