<svg xmlns="http://www.w3.org/2000/svg" width="18.756" height="18.754" viewBox="0 0 18.756 18.754">
    <defs>
        <style>
            .cls-1{opacity:.3}.cls-2{fill:none}.cls-3{opacity:.7}
        </style>
    </defs>
    <g id="Password_Icon" class="cls-1" data-name="Password Icon">
        <path id="Path_1162" d="M8288.179 822.07h18.756v18.755h-18.756zm0 0h18.756v18.755h-18.756zm0 0h18.756v18.755h-18.756zm0 0h18.756v18.755h-18.756z" class="cls-2" data-name="Path 1162" transform="translate(-8288.179 -822.07)"/>
        <path id="Path_1163" d="M8299.275 832.7a3.908 3.908 0 0 1 3.906 3.907 3.792 3.792 0 0 1-.279 1.43l2.281 2.282a5.628 5.628 0 1 0-5.915-9.573 9.1 9.1 0 0 0-3.111.547l1.688 1.688a3.8 3.8 0 0 1 1.43-.281zm-7.816-2.133l1.783 1.782.358.359a6.819 6.819 0 0 0 9.1 9.1l.329.328 2.289 2.282.993-.993-13.857-13.855zm4.323 4.321l1.211 1.211a2.206 2.206 0 0 0-.062.508 2.342 2.342 0 0 0 2.345 2.344 2.176 2.176 0 0 0 .507-.063L8301 840.1a3.881 3.881 0 0 1-5.213-5.212zm3.369-.61l2.462 2.462.015-.125a2.341 2.341 0 0 0-2.345-2.344z" class="cls-3" data-name="Path 1163" transform="translate(-8289.897 -827.226)"/>
    </g>
</svg>
