<svg xmlns="http://www.w3.org/2000/svg" width="9.699" height="12.894" viewBox="0 0 9.699 12.894">
    <defs>
        <style>
            .cls-1{fill:#fff}
        </style>
    </defs>
    <path id="Path_1070" d="M1430.671 1077.182a9.41 9.41 0 0 0 3.237 4.8l1.6-1.081a.618.618 0 0 1 .65-.025 7.09 7.09 0 0 0 2.109.771.623.623 0 0 1 .491.728l-.414 2.128a.623.623 0 0 1-.728.491 10.558 10.558 0 0 1-8.35-12.38.623.623 0 0 1 .728-.491l2.134.415a.623.623 0 0 1 .491.728 7.064 7.064 0 0 0-.076 2.244.623.623 0 0 1-.273.592z" class="cls-1" data-name="Path 1070" transform="translate(-1429.072 -1072.11)"/>
</svg>
