<svg xmlns="http://www.w3.org/2000/svg" width="13.344" height="15.43" viewBox="0 0 13.344 15.43"><defs><style>.a{fill:#282d5b;}</style></defs><g transform="translate(-19.3 -14.5)"><g transform="translate(19.3 14.5)"><path class="a" d="M35.99,22.28a3.89,3.89,0,1,0-3.89-3.89A3.886,3.886,0,0,0,35.99,22.28Zm0-6.476A2.586,2.586,0,1,1,33.4,18.39,2.579,2.579,0,0,1,35.99,15.8Z" transform="translate(-29.318 -14.5)"/><path class="a" d="M25.972,53.8A6.687,6.687,0,0,0,19.3,60.472v.217h1.3v-.217a5.368,5.368,0,1,1,10.736,0v.217h1.3v-.217A6.687,6.687,0,0,0,25.972,53.8Z" transform="translate(-19.3 -45.259)"/></g></g></svg>