<svg xmlns="http://www.w3.org/2000/svg" xmlns:xlink="http://www.w3.org/1999/xlink" width="109.306" height="109.306" viewBox="0 0 109.306 109.306"><defs><style>.a{fill:#e6e6e6;}.b{clip-path:url(#a);}.c{fill:#fff;}</style><clipPath id="a"><path class="a" d="M54.653,0A54.653,54.653,0,1,1,0,54.653,54.653,54.653,0,0,1,54.653,0Z" transform="translate(495.499 516)"/></clipPath></defs><g transform="translate(-495.499 -516)"><g transform="translate(-181.501 152)"><g transform="translate(677 364)"><path class="a" d="M54.653,0A54.653,54.653,0,1,1,0,54.653,54.653,54.653,0,0,1,54.653,0Z" transform="translate(0 0)"/></g></g><g class="b"><g transform="translate(532.088 554.583)"><path class="c" d="M120.216,17.442A17.442,17.442,0,1,1,102.774,0,17.441,17.441,0,0,1,120.216,17.442Zm0,0" transform="translate(-85.332 0)"/></g><path class="c" d="M18,0H46A18,18,0,0,1,64,18V31a0,0,0,0,1,0,0H0a0,0,0,0,1,0,0V18A18,18,0,0,1,18,0Z" transform="translate(518 596)"/></g></g></svg>