<svg xmlns="http://www.w3.org/2000/svg" width="14.971" height="14.971" viewBox="0 0 14.971 14.971"><defs><style>.a{fill:#fff;}</style></defs><path class="a" d="M7.485,0a7.485,7.485,0,1,0,7.485,7.485A7.494,7.494,0,0,0,7.485,0Zm0,13.811a6.326,6.326,0,1,1,6.326-6.326A6.333,6.333,0,0,1,7.485,13.811Z"/><g transform="translate(4.006 3.954)"><path class="a" d="M143.4,138.137h-2.319v-2.319a.58.58,0,1,0-1.16,0v2.319H137.6a.58.58,0,0,0,0,1.16h2.319v2.319a.58.58,0,1,0,1.16,0V139.3H143.4a.58.58,0,1,0,0-1.16Z" transform="translate(-137.022 -135.238)"/></g></svg>