<svg xmlns="http://www.w3.org/2000/svg" xmlns:xlink="http://www.w3.org/1999/xlink" width="24" height="24" viewBox="0 0 24 24">
  <defs>
    <clipPath id="clip-Radius_Map">
      <rect width="24" height="24"/>
    </clipPath>
  </defs>
  <g id="Radius_Map" data-name="Radius Map" clip-path="url(#clip-Radius_Map)">
    <rect width="24" height="24" fill="#fff"/>
    <g id="map" transform="translate(1 1)" opacity="0.6">
      <path id="Path_1245" data-name="Path 1245" d="M212.934,75a1.934,1.934,0,1,0,1.934,1.934A1.936,1.936,0,0,0,212.934,75Zm0,0" transform="translate(-201.933 -71.777)" fill="#51606a"/>
      <path id="Path_1246" data-name="Path 1246" d="M141.156,0a5.157,5.157,0,0,0-4.364,7.9l4.364,6.964L145.521,7.9A5.157,5.157,0,0,0,141.156,0Zm0,8.379a3.223,3.223,0,1,1,3.223-3.223A3.227,3.227,0,0,1,141.156,8.379Zm0,0" transform="translate(-130.156)" fill="#51606a"/>
      <path id="Path_1247" data-name="Path 1247" d="M183,424.91h6.272l-.5-3.91h-5.293Zm0,0" transform="translate(-175.133 -402.91)" fill="#51606a"/>
      <path id="Path_1248" data-name="Path 1248" d="M197.992,326.509h2.188l-1.826-2.9Zm0,0" transform="translate(-189.484 -309.708)" fill="#51606a"/>
      <path id="Path_1249" data-name="Path 1249" d="M332.781,304.867h5.078L336.248,301h-3.963Zm0,0" transform="translate(-318.007 -288.066)" fill="#51606a"/>
      <path id="Path_1250" data-name="Path 1250" d="M50,304.867h5.06L55.54,301H51.607Zm0,0" transform="translate(-47.848 -288.066)" fill="#51606a"/>
      <path id="Path_1251" data-name="Path 1251" d="M263.094,327.335h2.169l-.366-2.859Zm0,0" transform="translate(-251.789 -310.534)" fill="#51606a"/>
      <path id="Path_1252" data-name="Path 1252" d="M7.047,421H1.611L0,424.91H6.564Zm0,0" transform="translate(0 -402.91)" fill="#51606a"/>
      <path id="Path_1253" data-name="Path 1253" d="M353.122,421h-5.45l.5,3.91h6.565Zm0,0" transform="translate(-332.733 -402.91)" fill="#51606a"/>
    </g>
  </g>
</svg>
