<svg xmlns="http://www.w3.org/2000/svg" width="15.258" height="12.872" viewBox="0 0 15.258 12.872">
    <defs>
        <style>
            .cls-1{fill:#2aabfa}
        </style>
    </defs>
    <g id="search" transform="translate(-.001 3.5)">
        <path id="Path_1241" d="M15.046 45.356l-6.8-4.322a1.146 1.146 0 0 0-1.241 0l-6.8 4.322a.467.467 0 0 0-.145.633.44.44 0 0 0 .615.149l6.8-4.322a.278.278 0 0 1 .3 0l6.8 4.322a.436.436 0 0 0 .235.069.444.444 0 0 0 .381-.218.467.467 0 0 0-.145-.633zm0 0" class="cls-1" data-name="Path 1241" transform="translate(0 -43.264)"/>
        <path id="Path_1242" d="M143.431-2.534a.968.968 0 0 0-.967-.966h-.66a.968.968 0 0 0-.967.966v1.706l2.595-1.6zm0 0" class="cls-1" data-name="Path 1242" transform="translate(-137.497)"/>
        <path id="Path_1243" d="M301.166 260.039a1.117 1.117 0 1 0 .79.327 1.114 1.114 0 0 0-.79-.327zm0 0" class="cls-1" data-name="Path 1243" transform="translate(-292.929 -257.078)"/>
        <path id="Path_1244" d="M66.436 124.913h-.147v-5.427l-5.556-3.554a.276.276 0 0 0-.3 0l-5.556 3.554v5.427h-.148a.46.46 0 0 0 0 .919h11.707a.46.46 0 0 0 0-.919zm-3.855-2.934a1.923 1.923 0 0 1-2.434.288l-1.38 1.433a.434.434 0 0 1-.629 0 .471.471 0 0 1 0-.65l1.381-1.428a2.093 2.093 0 0 1 .281-2.522 1.925 1.925 0 0 1 2.784 0 2.089 2.089 0 0 1 0 2.88zm0 0" class="cls-1" data-name="Path 1244" transform="translate(-52.953 -116.461)"/>
    </g>
</svg>
