<svg xmlns="http://www.w3.org/2000/svg" width="16.6" height="14.941" viewBox="0 0 16.6 14.941"><defs><style>.a{fill:#fff;}</style></defs><path class="a" d="M15,14.941H1.7A1.7,1.7,0,0,1,0,13.281V10.791A.869.869,0,0,1,.9,9.96a.849.849,0,0,1,.8.832v2.489H15V10.791a.8.8,0,1,1,1.6,0v2.489A1.613,1.613,0,0,1,15,14.941Zm-6.7-3.32a.848.848,0,0,1-.8-.83V2.659L5.6,4.36a.964.964,0,0,1-.582.206A.809.809,0,0,1,4.4,4.282a.846.846,0,0,1-.209-.638A.767.767,0,0,1,4.5,3.111L7.8.2A.842.842,0,0,1,8.9.2l3.3,2.906a.885.885,0,0,1,.1,1.172.879.879,0,0,1-.659.283A.763.763,0,0,1,11.1,4.36l-1.9-1.7v8.132A.868.868,0,0,1,8.3,11.621Z"/></svg>