<svg xmlns="http://www.w3.org/2000/svg" xmlns:xlink="http://www.w3.org/1999/xlink" width="160.001" height="165.735" viewBox="0 0 160.001 165.735"><defs><style>.a,.c,.j{fill:none;}.a{stroke:#2275ff;stroke-linecap:round;stroke-linejoin:round;stroke-width:0.5px;}.b,.e,.f,.g,.h{fill:#2aabfa;}.c{stroke:#fff;stroke-width:4px;}.d{opacity:0.74;}.e{opacity:0.49;}.f{opacity:0.22;}.g{opacity:0.3;}.h{opacity:0.48;}.i{stroke:none;}.k{filter:url(#c);}.l{filter:url(#a);}</style><filter id="a" x="12.09" y="31.645" width="134.09" height="134.09" filterUnits="userSpaceOnUse"><feOffset dy="1" input="SourceAlpha"/><feGaussianBlur stdDeviation="5" result="b"/><feFlood flood-color="#8b8b8b" flood-opacity="0.122"/><feComposite operator="in" in2="b"/><feComposite in="SourceGraphic"/></filter><filter id="c" x="24.581" y="44.136" width="109.108" height="109.108" filterUnits="userSpaceOnUse"><feOffset dy="1" input="SourceAlpha"/><feGaussianBlur stdDeviation="5" result="d"/><feFlood flood-color="#8b8b8b" flood-opacity="0.122"/><feComposite operator="in" in2="d"/><feComposite in="SourceGraphic"/></filter></defs><g transform="translate(-167.571 -10.037)"><g transform="translate(167.571 10.037)"><g transform="translate(27.09 45.645)"><g class="l" transform="matrix(1, 0, 0, 1, -27.09, -45.65)"><g class="a" transform="translate(27.09 45.65)"><circle class="i" cx="52.045" cy="52.045" r="52.045"/><circle class="j" cx="52.045" cy="52.045" r="51.795"/></g></g><g transform="translate(12.491 12.491)"><g class="k" transform="matrix(1, 0, 0, 1, -39.58, -58.14)"><circle class="b" cx="39.554" cy="39.554" r="39.554" transform="translate(39.58 58.14)"/></g><path class="c" d="M1208.814,507.552l13.4,13.506,26.132-22.576" transform="translate(-1189.628 -470.51)"/></g></g><g class="d" transform="translate(0 0)"><circle class="e" cx="8.393" cy="8.393" r="8.393" transform="translate(0 47.738)"/><circle class="f" cx="12.066" cy="12.066" r="12.066" transform="translate(135.87 33.049)"/><circle class="g" cx="4.721" cy="4.721" r="4.721" transform="translate(47.738 14.689)"/><circle class="h" cx="8.393" cy="8.393" r="8.393" transform="translate(84.459)"/></g></g></g></svg>