<svg xmlns="http://www.w3.org/2000/svg" width="22.968" height="22.961" viewBox="0 0 22.968 22.961">
    <defs>
        <style>
            .cls-1{fill:#acacac}
        </style>
    </defs>
    <path id="Path_364" d="M-683.87 241.784a1.187 1.187 0 0 0 2.013-.613v-.448a1.05 1.05 0 0 0-.35-.719c-.491-.424-.953-.88-1.438-1.31-.446-.4-.867-.82-1.323-1.2a.7.7 0 0 1-.283-.592c.011-1.358.007-2.716 0-4.074 0-.374-.142-.53-.5-.535q-1.074-.016-2.149 0a.478.478 0 0 0-.508.53c-.013.41 0 .821-.005 1.231a.42.42 0 0 1-.022.223.2.2 0 0 1-.108-.07q-1.22-1.1-2.428-2.216c-.619-.571-1.259-1.12-1.858-1.713a.884.884 0 0 0-.361-.214h-.269a.82.82 0 0 0-.235.122c-.335.33-.7.626-1.041.951-.587.563-1.2 1.1-1.8 1.647q-1.17 1.075-2.348 2.141-.894.813-1.782 1.633c-.635.588-1.283 1.162-1.918 1.749a92.736 92.736 0 0 1-1.739 1.58 1.3 1.3 0 0 0-.5 1.089 1.113 1.113 0 0 0 .6 1 1.115 1.115 0 0 0 1.192-.022 2.86 2.86 0 0 0 .427-.341.526.526 0 0 1 .024.22v9.989c0 .351 0 .352-.344.354-.485 0-.971-.012-1.456.006a.4.4 0 0 0-.441.451c.005.281.129.387.453.392h22.128a.346.346 0 0 0 .379-.246v-.269c-.094-.26-.184-.329-.481-.334-.462-.009-.925 0-1.387 0-.346 0-.348 0-.348-.349v-9.957c0-.071-.025-.148.029-.215.083.012.125.078.177.129zm-3.548-8.673c.4.01.806.005 1.209 0 .091 0 .155 0 .154.126v3.319c-.513-.47-.978-.9-1.448-1.324a.259.259 0 0 1-.081-.217v-1.724c-.005-.128.018-.185.165-.181zm-9.353 9.163v-1.32c0-.135.018-.194.177-.192.91.008 1.819.007 2.729 0 .127 0 .161.033.161.161q-.008 1.364 0 2.729c0 .142-.042.171-.176.17q-1.353-.009-2.707 0c-.146 0-.189-.037-.185-.185.007-.454.001-.909.001-1.364zm2.86 5.377c-.44-.009-.88 0-1.319 0h-1.364c-.13 0-.181-.026-.18-.171q.01-1.364 0-2.728c0-.146.049-.171.18-.17.9.005 1.8.007 2.706 0 .158 0 .182.057.181.194 0 .894-.007 1.789 0 2.683.002.161-.056.194-.205.191zm3.852 0c-.9 0-1.8-.007-2.706 0-.159 0-.181-.059-.181-.2 0-.895.007-1.789 0-2.683 0-.165.057-.2.205-.192.44.009.879 0 1.319 0h1.364c.132 0 .181.026.18.171q-.01 1.364 0 2.728c0 .15-.052.175-.182.174zm.18-3.99c0 .127-.035.163-.162.162q-1.376-.008-2.751 0c-.139 0-.153-.054-.152-.17q.006-1.364 0-2.729c0-.127.033-.163.16-.161.462.007.924 0 1.387 0h1.342c.13 0 .179.022.178.168-.01.909-.008 1.819-.003 2.729zm5.195-3.785l-5.175-4.827q-1.548-1.443-3.1-2.882c-.295-.273-.44-.274-.729-.005q-3.058 2.844-6.114 5.692l-3.538 3.3a.39.39 0 0 1-.592.018.391.391 0 0 1 .077-.587l10.4-9.5c.115-.105.171-.1.281 0q2.315 2.13 4.64 4.251l5.7 5.218a.5.5 0 0 1 .214.371.369.369 0 0 1-.224.339.38.38 0 0 1-.451-.089q-.694-.652-1.39-1.301z" class="cls-1" data-name="Path 364" transform="translate(704.825 -230.059)"/>
</svg>
