<svg xmlns="http://www.w3.org/2000/svg" width="24.283" height="24.285" viewBox="0 0 24.283 24.285">
    <defs>
        <style>
            .cls-1{fill:url(#linear-gradient)}
        </style>
        <linearGradient id="linear-gradient" x1=".5" x2=".5" y2="1" gradientUnits="objectBoundingBox">
            <stop offset="0" stop-color="#56ccf2"/>
            <stop offset="1" stop-color="#2f80ed"/>
        </linearGradient>
    </defs>
    <g id="Group_565" data-name="Group 565" transform="translate(1246.5 99.045)">
        <path id="Path_373" d="M-1047.055 141.083a.617.617 0 0 1-.257-.584c.013-.553 0-1.106.008-1.659 0-.148-.04-.2-.186-.183a1.069 1.069 0 0 1-.213 0 .392.392 0 0 1-.41-.4q-.015-.818 0-1.636a.374.374 0 0 1 .417-.387 19.61 19.61 0 0 1 1 0c.146 0 .206-.026.206-.192 0-.622.009-.622-.6-.622-.2 0-.4.007-.593 0a.4.4 0 0 1-.427-.433q-.012-.77 0-1.541a.407.407 0 0 1 .455-.455c.332-.007.664-.008 1 0 .139 0 .174-.045.171-.176a23.812 23.812 0 0 1 0-1 .406.406 0 0 1 .389-.447.416.416 0 0 1 .417.449c.007.316.012.633 0 .948-.007.171.031.226.216.224 1.011-.01 2.023 0 3.035 0h3.414c.174 0 .234-.036.224-.219-.017-.315-.008-.632 0-.948a.412.412 0 0 1 .407-.454.417.417 0 0 1 .4.444c.006.34.007.68 0 1.019 0 .127.038.16.16.156.324-.008.648-.006.972 0 .343 0 .485.152.487.5v1.446c0 .333-.141.48-.471.487s-.648.007-.972 0c-.129 0-.186.024-.175.166a2.816 2.816 0 0 1 0 .474c-.014.158.056.181.192.177.316-.009.632-.006.948 0 .335 0 .476.145.478.476v1.446c0 .358-.145.5-.5.506-.3 0-.3 0-.3.313 0 .522-.01 1.043 0 1.565a.548.548 0 0 1-.287.547h-1.849c-.284-.078-.35-.157-.356-.468-.009-.521 0-1.042 0-1.563 0-.292-.019-.311-.307-.312h-4.5c-.288 0-.3.017-.306.312v1.516a.467.467 0 0 1-.357.515z" class="cls-1" data-name="Path 373" transform="translate(-185.834 -215.844)"/>
        <path id="Path_374" d="M-1063.7-17.748c-.687 0-1.374.009-2.061 0a1.607 1.607 0 0 1-1.57-1.4 1.632 1.632 0 0 1 1.116-1.748c.015 0 .029-.012.044-.017a3.01 3.01 0 0 0 .961-.6 2.016 2.016 0 0 1 3.273.364.284.284 0 0 0 .286.176 1.617 1.617 0 0 1 1.591 1.608 1.6 1.6 0 0 1-1.556 1.614c-.695.015-1.39 0-2.085 0z" class="cls-1" data-name="Path 374" transform="translate(-167.827 -71.992)"/>
        <path id="Path_375" d="M-974.027-94.589c-.687 0-1.375.01-2.062 0a1.609 1.609 0 0 1-1.584-1.468 1.547 1.547 0 0 1 1.245-1.7 1.231 1.231 0 0 0 .847-.547 2 2 0 0 1 3.311.321.258.258 0 0 0 .26.172 1.609 1.609 0 0 1 1.61 1.611 1.621 1.621 0 0 1-1.612 1.616c-.672.004-1.343-.004-2.015-.005z" class="cls-1" data-name="Path 375" transform="translate(-251.819)"/>
        <path id="Path_376" d="M-963.312 62.287a2.444 2.444 0 0 1 1.618-1.189 2.241 2.241 0 0 1 .517-.054.4.4 0 0 1 .4.392.394.394 0 0 1-.381.4 1.784 1.784 0 0 0-1.013.348 1.624 1.624 0 0 0-.632 1.222c-.02.3-.16.458-.4.461s-.384-.157-.412-.452a.8.8 0 0 0-.7-.748c-.047-.007-.094-.011-.141-.019a.393.393 0 0 1-.363-.44.4.4 0 0 1 .448-.361 1.677 1.677 0 0 1 1.059.44z" class="cls-1" data-name="Path 376" transform="translate(-263.866 -149.966)"/>
        <path id="Path_377" d="M-1235.455-28.908a.339.339 0 0 1-.316-.183 2 2 0 0 0-1.376-.916 2.276 2.276 0 0 0-1.056.037c-.2.06-.213-.013-.2-.167a1.23 1.23 0 0 0 0-.213c-.009-.106.034-.14.14-.168a2.407 2.407 0 0 0 1.876-2.464v-9.1a2.4 2.4 0 0 0-2.271-2.518c-.122-.013-.161-.05-.157-.171.007-.253.006-.506 0-.758a2.43 2.43 0 0 0-2.947-2.264 2.415 2.415 0 0 0-1.9 2.424c-.006 1.58 0 3.16 0 4.741 0 .111 0 .2-.134.259a2.377 2.377 0 0 0-1.486 2.321c0 1.7-.005 3.4 0 5.1a2.388 2.388 0 0 0 1.857 2.428c.225.061.141.2.157.322s0 .194-.158.227a1.843 1.843 0 0 0-1.2.816.532.532 0 0 1-.49.263 1.35 1.35 0 0 0-1.342 1.274.256.256 0 0 1-.041.247v.285a.916.916 0 0 0 .285.285h12c.123-.107.257-.2.259-.392.008-.917-.397-1.697-1.5-1.715zm-7.4-16.547a1.589 1.589 0 0 1 1.394-1.57 1.6 1.6 0 0 1 1.76 1.117 5.3 5.3 0 0 1 .075 1.341c.005.1-.071.1-.135.133a2.423 2.423 0 0 0-1.455 1.846 3.5 3.5 0 0 0-.028.613v2.009a2.386 2.386 0 0 0-1.5-.6c-.144 0-.115-.1-.115-.179v-1.374c.005-1.109-.001-2.223.008-3.336zm.025 8.536a.376.376 0 0 0-.42.3 1 1 0 0 0-.02.258v2.84c-.08.02-.1-.048-.141-.076a.4.4 0 0 0-.556.039.385.385 0 0 0 .014.554c.183.2.378.382.568.571a.29.29 0 0 1 .117.219c-.006.292 0 .583 0 .878a1.54 1.54 0 0 1-1.2-1.422c-.021-.734-.009-1.469-.01-2.2v-3.152a1.553 1.553 0 0 1 .852-1.452 1.616 1.616 0 0 1 2.374 1.48c.025 1.761.014 3.523 0 5.285a1.552 1.552 0 0 1-1.212 1.466v-2.434a.34.34 0 0 1 .115-.269c.177-.169.349-.344.52-.519a.425.425 0 0 0 .066-.626c-.163-.171-.378-.162-.608.024-.017.014-.038.024-.091.056v-1.144c0-.1 0-.206-.005-.308a.377.377 0 0 0-.359-.368zm3.611 7.443a.767.767 0 0 1-.568.572 5.425 5.425 0 0 1-1.031-.011c-.1 0-.137-.054-.179-.121a2.017 2.017 0 0 0-1.327-.951c-.129-.027-.157-.1-.134-.2s-.1-.276.1-.319a2.482 2.482 0 0 0 1.522-1.03 2.466 2.466 0 0 0 1.523 1.026c.1.021.1.081.1.156 0 .293.008.586-.002.878zm.409-11.5a.4.4 0 0 0-.4.432c-.006.608 0 1.217 0 1.825v1.559c-.088.023-.111-.055-.16-.087a.4.4 0 0 0-.554.056.4.4 0 0 0 .017.539c.189.2.387.395.584.588a.324.324 0 0 1 .114.247v2.291c-.082.04-.1-.035-.141-.063a.4.4 0 0 0-.556.023.4.4 0 0 0 .016.575q.268.284.553.552a.376.376 0 0 1 .131.311c-.009.26 0 .521 0 .783a1.542 1.542 0 0 1-1.214-1.49c-.01-.664 0-1.328 0-1.991v-7.278a1.63 1.63 0 0 1 1.811-1.689 1.614 1.614 0 0 1 1.413 1.434c.006.087.008.174.008.261v9.127a1.612 1.612 0 0 1-1.122 1.629.541.541 0 0 1-.083.01v-2.516a.269.269 0 0 1 .113-.2l.469-.469c.256-.257.293-.463.119-.657s-.4-.175-.669.049c-.053-.05-.03-.115-.03-.171v-2.086a.4.4 0 0 1 .134-.333c.175-.16.339-.331.5-.5.207-.212.226-.427.059-.607s-.377-.173-.609.012c-.016.013-.035.025-.087.063v-1.388c0-.142.007-.285 0-.427a.412.412 0 0 0-.412-.413z" class="cls-1" data-name="Path 377" transform="translate(0 -47.95)"/>
    </g>
</svg>
