<svg xmlns="http://www.w3.org/2000/svg" width="18.409" height="23.963" viewBox="0 0 18.409 23.963">
    <defs>
        <style>
            .cls-1{fill:url(#linear-gradient)}
        </style>
        <linearGradient id="linear-gradient" x1=".5" x2=".5" y2="1" gradientUnits="objectBoundingBox">
            <stop offset="0" stop-color="#56ccf2"/>
            <stop offset="1" stop-color="#2f80ed"/>
        </linearGradient>
    </defs>
    <g id="Group_220" data-name="Group 220" transform="translate(1434.264 711.741)">
        <path id="Path_378" d="M-1417.991-552.9v-.16-9.3c0-.42-.045-.388.411-.39.347 0 .694.009 1.04 0a.608.608 0 0 0 .66-.638v-.4-2.334c0-.39-.179-.581-.594-.644a2.349 2.349 0 0 0-.357-.021h-16.5a2.337 2.337 0 0 0-.322.015c-.385.053-.52.164-.611.5v3.034a.51.51 0 0 0 .246.369.853.853 0 0 0 .46.117h1.058c.331 0 .331 0 .331.315v9.537h-2.1v1.934h18.409v-1.934zm-.25-11.26q-2.041-.005-4.083 0H-1431.893c-.125 0-.169-.02-.165-.147.011-.371.01-.742 0-1.113 0-.121.031-.152.163-.152q6.408.005 12.816 0c.284 0 .568.006.851 0 .116 0 .125.042.124.128 0 .386-.006.772 0 1.157.004.106-.028.129-.137.128z" class="cls-1" data-name="Path 378" transform="translate(0 -136.813)"/>
        <path id="Path_379" d="M-1382.957-708.345l-1.64 2.47c-.206.311-.206.312-.489.06-.055-.049-.108-.1-.162-.151a2.353 2.353 0 0 1-.04-3q.757-1.158 1.507-2.319a.577.577 0 0 1 .355-.459 2.5 2.5 0 0 1 .9 1.308 2.315 2.315 0 0 1-.293 1.848c-.049.081-.093.163-.138.243z" class="cls-1" data-name="Path 379" transform="translate(-45.736)"/>
        <path id="Path_380" d="M-1277.99-705a4.7 4.7 0 0 1-.494-.731 2.61 2.61 0 0 1 .444-2.527c.564-.8 1.087-1.628 1.616-2.452.107-.167.166-.16.307-.042a2.362 2.362 0 0 1 .838 1.876 1.124 1.124 0 0 1-.132.8 3.542 3.542 0 0 1-.728 1.107c-.437.655-.885 1.3-1.306 1.97-.149.235-.262.306-.452.065a.369.369 0 0 0-.093-.066z" class="cls-1" data-name="Path 380" transform="translate(-148.42 -.85)"/>
        <path id="Path_381" d="M-1171.591-705.5a3.808 3.808 0 0 1-.281-.9 2.741 2.741 0 0 1 .518-1.706q.868-1.287 1.707-2.595c.1-.158.158-.172.306-.049a2.7 2.7 0 0 1 .709.988.239.239 0 0 1 .068.068 1.2 1.2 0 0 1 .056.936 3.379 3.379 0 0 1-.593 1.369q-.827 1.228-1.625 2.475c-.112.175-.178.177-.327.045a3.465 3.465 0 0 1-.538-.631z" class="cls-1" data-name="Path 381" transform="translate(-250.25 -.858)"/>
    </g>
</svg>
