<svg xmlns="http://www.w3.org/2000/svg" width="20.948" height="20.963" viewBox="0 0 20.948 20.963">
    <defs>
        <style>
            .cls-1{fill:#acacac}
        </style>
    </defs>
    <path id="Path_382" d="M-2465.684-1584.983v-2.565a1.184 1.184 0 0 0-1-1.143c-.2-.026-.237-.119-.234-.3q.012-.818 0-1.635a1.22 1.22 0 0 0-1.039-1.307h-17.85a1.283 1.283 0 0 0-.8 1.425c.021.422 0 .846 0 1.269v2.866a1.035 1.035 0 0 0 1.149 1.152h17.215a1.138 1.138 0 0 0 1.249-1.239c0-.457.011-.915 0-1.371-.007-.2.1-.194.224-.165a.711.711 0 0 1 .432.57v2.518a.447.447 0 0 1-.4.466 1.873 1.873 0 0 1-.326.02h-8.924a1.1 1.1 0 0 0-1.095.868 1.868 1.868 0 0 0-.038.59c.012.161-.039.2-.2.2-.621-.01-1.242 0-1.862-.005-.106 0-.194.023-.223.134s.037.164.118.214.173.109.257.167a.935.935 0 0 1 .443.853c-.017 3.125-.009 6.25-.009 9.375a.94.94 0 0 0 1.061 1.054h1.433a1.008 1.008 0 0 0 1.105-1.1v-9.477a.721.721 0 0 1 .248-.576 2.473 2.473 0 0 1 .323-.249c.093-.058.181-.11.15-.234s-.141-.161-.269-.16h-1.535c-.389 0-.389 0-.384-.4s.182-.582.586-.582h8.842a1.233 1.233 0 0 0 1.348-.919c0-.009.021-.013.032-.019v-.082a.407.407 0 0 1-.027-.213zm-1.96-4.885a2.491 2.491 0 0 0-1.354-.519 2.038 2.038 0 0 0-2.117 1.942 1.59 1.59 0 0 1-.961 1.531 1.517 1.517 0 0 1-2.1-1.378 2.7 2.7 0 0 0-.1-.807 1.726 1.726 0 0 0-1.865-1.145 1.727 1.727 0 0 0-1.474 1.638 2.455 2.455 0 0 1-.019.387.736.736 0 0 1-.763.578.742.742 0 0 1-.69-.71 4.006 4.006 0 0 0-.023-.51 1.132 1.132 0 0 0-1.2-.922 1.14 1.14 0 0 0-1.068 1.138 2.208 2.208 0 0 1-.072.647 1.472 1.472 0 0 1-1.516 1.007 1.453 1.453 0 0 1-1.337-1.3c-.015-.135-.015-.272-.022-.408a1.115 1.115 0 0 0-1.447-1.017c-.174.052-.188 0-.184-.146.01-.293 0-.587 0-.88.007-.409.139-.536.543-.536h17.109c.469 0 .654.186.655.657.005.241.005.477.005.753z" class="cls-1" data-name="Path 382" transform="translate(2486.612 1591.929)"/>
</svg>
