<svg xmlns="http://www.w3.org/2000/svg" width="13.489" height="12.013" viewBox="0 0 13.489 12.013">
    <defs>
        <style>
            .cls-1{fill:#d3cfdf}
        </style>
    </defs>
    <g id="twitter">
        <path id="Path" d="M13.489 1.422A5.376 5.376 0 0 1 11.9 1.9 2.981 2.981 0 0 0 13.112.225a5.242 5.242 0 0 1-1.754.734A2.664 2.664 0 0 0 9.339 0a2.907 2.907 0 0 0-2.764 3.032 3.411 3.411 0 0 0 .064.691 7.624 7.624 0 0 1-5.7-3.17 3.279 3.279 0 0 0-.378 1.532A3.122 3.122 0 0 0 1.789 4.6 2.55 2.55 0 0 1 .54 4.231v.033a2.99 2.99 0 0 0 2.215 2.978 2.532 2.532 0 0 1-.725.1 2.237 2.237 0 0 1-.524-.052A2.838 2.838 0 0 0 4.09 9.4a5.255 5.255 0 0 1-3.428 1.295A4.731 4.731 0 0 1 0 10.653a7.3 7.3 0 0 0 4.242 1.36c5.089 0 7.871-4.621 7.871-8.626 0-.134 0-.263-.01-.392a5.839 5.839 0 0 0 1.386-1.573z" class="cls-1"/>
    </g>
</svg>
