<svg xmlns="http://www.w3.org/2000/svg" width="15.109" height="14.27" viewBox="0 0 15.109 14.27"><defs><style>.a{fill:#282d5b;}</style></defs><g transform="translate(0 -1.824)"><g transform="translate(4.677 8)"><path class="a" d="M162.041,190.9l-2.89-2.884.828-.828,1.16,1.166.276.7v-6.245h1.254v6.238l.257-.683,1.179-1.172.821.821Z" transform="translate(-159.151 -182.808)"/></g><g transform="translate(0 1.824)"><g transform="translate(0 0)"><path class="a" d="M11.643,58.949h-.063A4.683,4.683,0,0,0,2.5,60.535v.295a2.527,2.527,0,0,0,.05,5.053H5.687V64.629H2.552a1.27,1.27,0,0,1,0-2.539l1.254.031S3.75,60.83,3.75,60.535a3.423,3.423,0,0,1,6.765-.771l.138.589.589-.107a2.21,2.21,0,1,1,.4,4.382H9.449v1.254h2.194a3.467,3.467,0,0,0,0-6.934Z" transform="translate(-0.001 -55.883)"/></g></g></g></svg>