<svg xmlns="http://www.w3.org/2000/svg" width="17.197" height="10.961" viewBox="0 0 17.197 10.961"><defs><style>.a{fill:#282d5b;}</style></defs><g transform="translate(0 -92.835)"><g transform="translate(0 92.835)"><g transform="translate(0 0)"><path class="a" d="M17.088,97.981c-.154-.21-3.814-5.146-8.489-5.146S.263,97.771.109,97.981a.567.567,0,0,0,0,.669c.153.21,3.814,5.146,8.489,5.146s8.336-4.936,8.489-5.146A.567.567,0,0,0,17.088,97.981ZM8.6,102.662c-3.444,0-6.426-3.276-7.309-4.347.882-1.072,3.858-4.346,7.309-4.346s6.426,3.275,7.309,4.347C15.026,99.388,12.05,102.662,8.6,102.662Z" transform="translate(0 -92.835)"/></g></g><g transform="translate(5.197 94.914)"><g transform="translate(0 0)"><path class="a" d="M158.124,154.725a3.4,3.4,0,1,0,3.4,3.4A3.406,3.406,0,0,0,158.124,154.725Zm0,5.669a2.268,2.268,0,1,1,2.268-2.268A2.27,2.27,0,0,1,158.124,160.394Z" transform="translate(-154.722 -154.725)"/></g></g></g></svg>